<svg width="479" height="479" viewBox="0 0 479 479" fill="none" xmlns="http://www.w3.org/2000/svg">
<path d="M50.514 350.648C49.3984 350.798 48.2917 351.026 47.1761 351.088C39.0684 351.518 34.7818 345.475 38.1637 338.079C41.5016 330.797 47.4396 325.755 53.8695 321.327C69.628 310.479 87.117 303.505 105.511 298.682C122.007 294.36 138.741 291.725 155.878 292.692C164.452 293.175 172.84 294.703 180.632 298.524C193.896 305.033 198.121 317.111 191.946 330.577C187.457 340.362 180.263 347.855 171.962 354.443C153.674 368.963 132.943 378.59 110.579 384.897C109.71 385.143 108.84 385.416 107.689 385.749C111.106 388.771 115.147 390.326 118.819 392.434C129.28 398.434 138.916 405.874 150.028 410.714C159.761 414.956 169.836 418.215 180.526 419.015C187.431 419.533 194.168 418.558 200.694 416.212C202.697 415.492 204.709 414.789 206.861 414.377C204.384 417.978 200.73 419.831 196.803 421.14C187.782 424.153 178.48 424.944 169.125 423.573C152.549 421.149 137.511 414.368 122.938 406.48C114.119 401.71 105.722 396.229 97.3328 390.748C95.5585 389.588 94.7855 389.263 93.7577 391.635C89.9103 400.507 85.694 409.22 82.6635 418.426C81.1439 423.055 79.308 427.711 80.9594 432.726C81.4952 434.343 80.8101 434.43 79.5013 434.246C76.2512 433.789 73.9673 430.908 73.818 426.753C73.6336 421.667 74.8282 416.801 76.5762 412.075C79.2202 404.925 81.8466 397.775 84.6663 390.695C85.5535 388.472 85.1055 387.761 82.8041 387.462C80.4236 387.155 78.2188 386.153 76.2073 384.792C74.4944 383.632 73.2207 382.174 73.8092 379.961C74.4065 377.721 75.7944 376.192 78.2539 375.815C81.5304 375.305 84.6311 375.99 87.5738 377.29C89.3306 378.063 90.1563 377.633 90.9029 375.955C98.6417 358.484 106.872 341.25 115.182 324.042C117.194 319.869 118.854 316.083 123.149 314.081C126.531 312.499 130.027 312.482 133.391 314.063C136.035 315.302 136.369 317.076 134.305 319.114C130.774 322.601 128.121 326.721 125.661 330.946C116.596 346.476 108.005 362.27 100.056 378.406C99.6518 379.232 98.4835 380.128 99.3707 381.138C100.144 382.016 101.242 382.007 102.498 381.753C123.298 377.484 141.341 367.812 157.328 354.004C164.443 347.855 170.802 341.065 175.932 333.168C179.077 328.328 181.431 323.19 181.343 317.26C181.273 312.35 179.182 308.582 175.045 305.806C168.721 301.555 161.526 300.492 154.236 300.079C135.447 299.007 117.299 302.767 99.4059 307.967C83.5771 312.57 68.53 318.947 54.8972 328.363C50.3647 331.491 46.2011 335.039 43.2057 339.73C39.9029 344.904 41.2469 347.925 47.2727 349.261C48.3619 349.498 49.4424 349.761 50.5228 350.007C50.5052 350.218 50.5052 350.438 50.514 350.648Z" fill="#FE6035" stroke="#FE6035"/>
<path d="M290.907 71.6508C293.946 70.5177 296.537 68.6819 298.865 66.4683C300.121 65.2737 300.938 63.7716 301.404 62.085C301.887 60.3458 301.957 58.5978 300.754 57.2099C299.515 55.7869 297.899 56.7883 296.59 57.2187C285.689 60.8114 274.814 60.2492 263.966 57.1133C261.726 56.4633 259.451 55.7166 257.343 52.9057C261.313 53.6524 264.44 54.2761 267.576 54.8295C276.308 56.3667 285.048 56.5863 293.691 54.3727C298.619 53.1078 299.111 52.2909 298.935 47.934C293.445 51.43 287.375 52.5456 280.954 52.5105C283.756 51.5618 286.541 50.5692 289.361 49.6644C292.576 48.6367 295.334 46.8272 297.741 44.5434C301.483 40.9946 301.614 35.9087 298.048 32.0437C296.441 36.7783 293.111 39.8176 287.92 42.3034C290.573 39.1588 292.742 36.6817 293.7 33.4404C295.114 28.6355 294.631 27.0807 290.854 25.4732C290.037 27.476 290.485 30.0497 288.298 31.5342C286.813 23.0225 287.569 22.2583 277.291 23.409C267.436 24.507 258.871 28.3632 254.137 38.0607C261.032 32.4214 269.105 29.593 277.722 27.8976C270.282 34.3188 259.565 35.5134 252.705 43.6825C262.912 46.8009 272.495 46.0454 282.676 41.1176C279.285 45.3251 275.174 46.3792 271.23 47.4157C265.336 48.9617 259.302 49.1374 253.267 47.9076C252.38 47.7232 251.458 47.6266 250.553 47.6353C249.692 47.6529 249.086 48.2502 248.708 48.9793C248.19 49.9807 249.112 50.3935 249.639 50.9118C251.66 52.8618 254.804 53.2132 256.737 55.9538C253.97 56.3491 251.642 55.5937 249.27 55.0315C248.243 54.7855 247.092 53.9598 246.231 55.3916C245.493 56.6038 245.713 57.7985 246.293 58.9755C246.987 60.3722 248.146 61.3208 249.543 61.8654C261.445 66.5385 273.628 69.4285 286.409 67.7771C283.853 69.4812 279.11 70.6583 273.488 70.8164C265.205 71.0535 257.185 69.4988 249.332 66.969C248.366 66.6527 247.338 66.3365 246.512 65.7656C240.091 61.3384 239.081 60.2492 241.637 52.2557C242.656 49.0847 242.867 45.413 246.828 44.0251C247.233 43.8846 247.373 42.8305 247.522 42.1717C250.702 28.2841 260.286 21.4853 273.514 18.8677C278.793 17.8224 284.143 17.4447 289.369 19.3332C302.361 24.0151 308.466 33.6248 304.285 47.3982C303.6 49.6557 303.538 51.4212 304.908 53.4591C306.981 56.5511 307.166 60.1262 306.393 63.675C306.085 65.1067 306.173 65.871 307.544 66.6703C322.714 75.507 329.952 89.377 332.437 106.207C334.106 117.486 335.872 128.703 341.301 138.989C346.351 148.564 353.3 156.434 362.268 162.416C364.833 164.129 365.826 165.974 365.132 168.995C347.326 157.857 334.133 143.408 330.426 121.922C329.381 115.87 328.318 109.826 327.027 103.827C323.987 89.6581 317.162 77.9753 304.531 70.1663C302.95 69.1913 301.72 68.7433 299.963 69.8853C297.864 71.2468 295.413 71.9495 292.901 72.2745C292.145 72.4063 291.205 73.1266 290.907 71.6508Z" fill="#FE6035" stroke="#FE6035"/>
<path d="M112.212 161.389C93.1244 176.19 89.3297 196.411 95.7947 211.985C101.654 226.101 116.235 239.83 143.571 237.897C134.058 245.777 115.049 249 99.2381 240.717C84.2613 232.864 74.4056 214.769 76.8476 197.667C79.3598 180.028 91.7453 165.104 112.212 161.389Z" fill="#FE6035" stroke="#FE6035"/>
<path d="M382.023 384.451C376.796 389.133 372.536 393.867 367.52 397.776C363.998 400.526 360.397 403.073 356.048 404.382C348.037 406.815 341.467 401.114 342.846 392.875C343.224 390.608 343.909 388.404 345.165 386.489C352.869 374.78 362.768 365.653 376.05 360.637C379.818 359.214 383.753 358.547 387.768 359.689C390.737 360.532 393.196 362.095 394.531 364.985C395.023 366.048 395.067 367.357 394.118 368.174C393.047 369.105 392.23 368.042 391.545 367.34C388.971 364.696 385.712 365.1 382.892 366.101C368.61 371.204 358.921 380.99 354.116 395.448C353.703 396.704 353.15 398.207 354.511 399.234C355.838 400.236 357.155 399.366 358.315 398.707C364.007 395.484 368.943 391.25 373.599 386.708C378.421 382.018 383.042 377.134 387.855 372.425C390.886 369.465 393.793 369.096 396.789 370.994C398.668 372.18 399.459 373.567 398.141 375.807C395.427 380.436 393.222 385.312 392.23 390.644C390.614 399.313 393.785 402.212 402.112 399.305C412.793 395.571 421.806 388.931 430.713 382.185C432.803 380.603 434.788 378.89 436.861 377.283C438.17 376.273 439.497 375.219 441.236 375.192C441.491 375.482 441.745 375.772 442 376.062C440.208 377.59 438.372 379.084 436.615 380.656C426.303 389.906 415.226 398.031 402.49 403.67C399.257 405.102 395.91 406.2 392.309 406.314C385.378 406.525 381.469 402.897 381.144 395.879C381.004 392.269 381.557 388.702 382.023 384.451Z" fill="#FE6035" stroke="#FE6035"/>
<path d="M209.829 95.8784C211.735 100.103 215.178 99.7434 218.419 99.1373C224.586 97.9778 230.111 95.2459 234.652 90.8891C236.883 88.7458 238.017 88.0694 240.766 90.8012C256.226 106.156 274.69 110.75 295.719 104.987C296.773 104.698 297.774 103.933 299.391 104.592C290.018 109.098 280.531 111.11 270.438 110.319C257.816 109.327 247.635 103.67 239.387 94.2885C237.946 92.6459 237.05 92.3472 235.214 94.0425C229.944 98.9264 223.927 102.545 216.513 103.064C215.327 103.143 214.897 103.556 214.932 104.706C214.985 106.164 214.941 107.631 214.941 109.379C221.538 107.807 227.95 106.015 235.539 108.229C230.84 109.133 227.01 109.792 223.216 110.627C220.888 111.136 218.613 111.909 216.32 112.577C215.222 112.902 213.843 113.236 214.352 114.746C214.862 116.257 216.118 115.142 216.917 114.949C221.45 113.851 225.921 112.392 230.682 112.647C231.912 112.717 233.212 112.498 234.547 113.692C227.774 114.518 221.626 116.609 215.53 118.945C214.089 119.499 213.386 120.228 213.026 121.703C211.902 126.333 211.498 130.839 213.448 135.424C215.284 139.755 214.282 144.155 213.096 148.495C211.858 153.001 210.312 157.402 208.555 161.723C207.466 164.394 208.142 165.228 211.067 164.973C212.886 164.815 214.686 164.446 216.496 164.367C220.738 164.192 221.915 166.098 219.904 169.813C219.535 170.499 219.043 171.122 218.586 171.799C221.951 172.976 225.28 173.924 229.048 174.003C225.71 176.103 223.971 179.353 221.573 182.006C220.545 183.139 220.176 183.745 221.441 184.975C223.426 186.89 223.216 189.525 223.259 192.037C223.374 197.395 225.297 199.161 230.656 198.933C233.185 198.818 235.601 198.133 237.99 197.36C246.678 194.558 255.031 190.948 263.113 186.732C266.635 184.896 269.551 182.278 272.16 179.274C270.702 182.919 268.076 185.669 265.282 188.277C261.154 192.134 256.331 194.953 251.201 197.202C248.847 198.239 248.311 199.503 249.489 201.656C250.63 203.746 251.746 205.863 252.932 207.927C256.779 214.638 256.999 221.507 253.968 228.57C253.16 230.45 252.528 232.4 251.825 234.323C251.605 234.938 251.623 235.931 250.771 235.817C249.937 235.702 249.585 234.824 249.647 233.972C249.778 232.048 249.805 230.089 250.165 228.201C251.895 219.294 251.535 210.554 248.575 201.919C247.863 199.855 247.134 199.328 244.982 200.083C240.59 201.638 236.128 203.043 231.499 203.773C223.066 205.116 218.27 200.127 220.045 191.747C220.817 188.111 220.484 185.177 216.496 183.683C215.916 183.464 215.002 182.559 215.099 182.348C216.786 178.448 211.076 174.943 214.598 170.903C215.705 169.629 214.581 168.874 213.158 168.838C211.34 168.795 209.495 168.926 207.694 168.715C203.636 168.241 202.187 165.729 203.882 161.978C206.324 156.567 208.151 150.954 209.644 145.218C210.479 142.003 210.505 138.885 209.24 135.837C207.141 130.786 207.123 125.762 208.476 120.465C210.145 113.947 211.164 107.289 209.17 100.578C208.739 99.1197 208.801 97.6615 209.829 95.8784Z" fill="#FE6035" stroke="#FE6035"/>
<path d="M365.017 244.149C372.203 243.455 378.896 243.403 385.308 245.792C385.3 246.126 385.291 246.46 385.282 246.802C381.259 246.802 377.236 246.705 373.213 246.837C370.367 246.925 367.53 247.329 365.009 248.884C363.612 249.745 362.452 250.781 362.031 252.459C361.223 255.63 362.031 256.587 365.193 256.096C370.648 255.252 376.076 255.34 382.322 256.684C378.65 258.133 375.418 257.773 372.378 258.3C369.91 258.731 367.407 258.959 365.07 259.917C363.155 260.698 361.873 262.016 361.776 264.265C361.644 267.506 362.365 268.068 365.615 267.445C369.664 266.663 373.74 266.241 378.026 267.427C376.533 268.973 374.504 268.727 372.818 269.263C370.323 270.062 367.723 270.537 365.448 271.898C364.288 272.601 363.023 273.391 363.919 275.131C364.684 276.615 365.5 277.757 367.556 277.467C377.921 276.009 383.271 279.417 385.642 289.624C387.109 295.931 390.104 300.657 395.823 303.775C398.704 305.348 400.145 308.396 400.997 313.71C396.763 309.002 391.58 306.56 387.162 303.073C383.894 300.499 382.375 296.792 381.689 292.734C381.294 290.388 381.083 287.999 380.056 285.777C377.658 280.568 374.047 279.259 368.961 281.833C366.01 283.326 361.275 281.288 360.476 277.212C359.642 272.908 358.087 268.604 358.078 264.282C358.078 260.804 358.728 257.404 357.964 253.829C357.349 250.948 358.693 248.146 361.187 246.354C362.505 245.414 362.549 244.58 362.461 243.069C362.233 239.151 363.612 235.497 365.017 231.764C361.24 234.496 358.034 237.798 355.68 241.857C354.96 243.104 355.302 243.411 357.665 245.625C354.283 246.477 352.175 244.404 352.614 240.645C353.203 235.567 361.205 227.934 366.335 227.714C370.455 227.53 374.583 227.785 378.466 229.269C384.737 231.667 390.948 234.206 397.149 236.762C400.487 238.141 402.516 240.688 403.843 244.079C407.954 254.558 412.152 265.011 415.49 275.763C418.776 286.321 425.056 295.044 431.688 303.617C432.54 304.724 433.664 305.752 433.831 307.781C431.486 306.727 430.168 304.996 428.552 303.687C419.513 296.37 413.611 287.156 410.404 275.886C407.576 265.942 404.238 256.122 400.347 246.512C399.073 243.359 396.965 241.259 393.882 239.889C387.952 237.245 381.97 234.724 375.707 233.029C371.034 231.764 369.374 232.677 367.415 237.157C366.493 239.327 365.878 241.637 365.017 244.149Z" fill="#FE6035" stroke="#FE6035"/>
<path d="M71.1306 263.116C65.8338 251.161 62.9615 238.53 61.108 225.679C56.1802 191.491 61.0641 158.56 75.8915 127.473C94.7684 87.8927 124.608 59.1338 164.839 41.557C189.179 30.9195 214.767 26.0356 241.391 26.9052C242.182 26.9316 242.981 26.9931 243.772 27.0721C243.921 27.0897 244.044 27.3093 244.334 27.5728C243.113 28.9168 241.549 28.3019 240.214 28.3019C198.007 28.337 160.104 41.2495 127.357 67.7509C92.6602 95.8334 70.8056 132.059 63.8662 176.4C59.5445 204 61.7141 231.362 70.8671 257.969C71.2711 259.146 71.5874 260.358 71.9475 261.562C72.1495 262.335 72.5273 263.187 71.1306 263.116Z" fill="#FE6035" stroke="#FE6035"/>
<path d="M188.168 80.5937C201.3 85.6533 213.492 87.2169 222.882 75.6922C230.366 66.5041 229.409 56.3937 222.882 46.4766C234.925 52.3004 239.475 63.1223 235.329 75.4638C230.99 88.3763 219 95.3069 205.806 92.5224C198.63 91.0116 193.061 87.1466 188.168 80.5937Z" fill="#FE6035" stroke="#FE6035"/>
<path d="M182.581 228.419C180.693 230.711 179.138 230.615 177.021 228.586C158.276 210.675 149.404 188.882 152.452 163.074C155.755 135.132 170.767 115.157 196.179 103.044C196.899 102.702 197.628 102.377 198.384 102.131C199.57 101.744 200.738 100.725 201.608 102.86C202.495 105.029 200.694 104.845 199.816 105.258C190.698 109.606 182.274 114.938 175.326 122.378C164.328 134.149 157.74 147.948 156.054 164.049C153.506 188.355 162.554 210.842 182.581 228.419Z" fill="#FE6035" stroke="#FE6035"/>
<path d="M242.372 208.691C233.378 214.093 226.667 221.708 221.054 230.387C214.044 241.218 211.251 252.848 214.984 265.488C218.401 277.074 228.081 283.495 240.185 282.441C251.947 281.413 260.942 274.94 269.348 267.385C270.279 266.551 271.149 265.646 272.062 264.794C272.212 264.654 272.466 264.627 272.686 264.548C273.38 265.347 272.607 265.822 272.221 266.261C265.615 273.886 258.588 280.974 248.855 284.62C240.212 287.852 231.559 287.712 223.311 283.671C215.379 279.788 211.409 272.55 209.52 264.302C203.617 238.495 222.029 215.349 240.932 208.453C241.353 208.286 241.784 208.093 242.372 208.691Z" fill="#FE6035" stroke="#FE6035"/>
<path d="M270.097 280.262C269.289 277.548 273.092 277.486 273.057 275.94C273.004 273.674 272.583 271.838 275.429 271.285C275.543 271.267 275.657 271.25 275.763 271.232C275.007 268.158 277.915 266.453 278.442 264.012C278.802 262.334 278.951 260.928 280.532 260.173C281.903 259.514 283.115 260.234 283.703 261.376C284.591 263.116 283.747 264.53 282.07 265.233C280.901 265.724 280.963 266.339 281.218 267.349C281.622 268.957 281.156 270.362 279.54 271.03C278.38 271.504 278.372 272.181 278.679 273.164C278.811 273.577 278.899 274.227 278.679 274.491C276.852 276.652 275.859 279.208 274.647 281.72C274.023 283.011 272.328 283.758 272.627 285.805C272.776 286.797 271.845 287.684 270.835 288.097C270.097 288.405 269.333 288.475 269.517 289.643C269.842 291.734 269.025 293.218 266.847 293.693C265.872 293.904 265.995 294.51 266.074 295.221C266.127 295.66 266.118 296.442 265.925 296.521C262.622 297.795 262.956 302.556 259.319 303.399C258.458 303.601 258.177 303.917 258.221 304.725C258.239 305.059 258.186 305.648 258.037 305.692C254.611 306.755 253.767 311.454 249.753 311.603C248.91 311.639 248.313 311.498 248.005 312.596C247.065 315.916 244.044 313.905 242.533 314.687C240.179 315.908 238.659 317.401 236.577 314.792C236.015 314.089 235.523 314.239 234.829 314.405C232.405 314.976 230.824 314.089 230.323 311.568C230.182 310.848 230.016 310.286 229.076 310.303C228.654 310.312 228.206 310.066 227.82 309.855C225.536 308.59 226.045 305.876 225 304.242C223.814 302.398 221.477 301.291 222.567 298.612C222.98 297.593 222.417 297.347 221.987 296.679C219.984 293.622 221.416 289.793 219.861 286.507C219.466 285.664 221.152 284.408 222.602 284.795C224.35 285.251 224.991 286.78 224.508 288.282C223.963 289.968 223.84 291.198 225.544 292.164C225.799 292.305 226.08 292.797 226.019 293.025C225.246 295.643 227.679 297.76 227.6 299.64C227.424 303.627 232.071 304.805 231.684 308.45C234.689 307.422 235.558 311.322 238.914 311.27C241.944 311.226 244.035 308.195 247.048 309.618C247.469 309.82 247.654 309.144 247.777 308.696C247.926 308.16 248.198 307.194 248.4 307.194C252.037 307.246 252.222 302.67 255.331 302.09C255.445 302.073 255.656 302.064 255.656 302.038C255.92 299.042 258.739 297.918 260.206 295.801C262.112 293.052 264.045 290.32 266.083 287.684C266.355 287.333 267.146 287.263 266.979 286.569C266.425 284.206 267.409 282.871 269.667 282.265C271.028 281.905 270.062 281 270.097 280.262Z" fill="#FE6035" stroke="#FE6035"/>
<path d="M244.624 219.986C243.122 224.308 241.154 228.428 240.539 232.96C240.329 234.533 240.127 236.131 240.144 237.712C240.197 241.938 242.692 244.476 246.943 244.669C253.268 244.959 258.995 242.579 264.766 240.506C279.022 235.376 291.979 228.27 301.378 215.919C303.099 213.662 304.549 211.202 306.182 208.875C307.184 207.443 307.895 205.73 309.898 204.605C310.425 209.287 308.756 212.889 306.446 216.279C298.716 227.628 288.21 235.587 275.799 241.129C268.42 244.423 260.918 247.454 252.907 248.938C252.688 248.982 252.477 249.079 252.249 249.123C240.214 251.486 233.899 244.573 237.219 232.811C238.616 227.901 241.189 223.711 244.624 219.986Z" fill="#FE6035" stroke="#FE6035"/>
<path d="M281.99 161.222C280.84 164.648 279.338 167.977 280.418 171.728C281.191 174.416 282.333 176.919 285.618 176.524C288.833 176.137 290.054 173.651 290.239 170.647C290.327 169.172 290.458 167.608 289.668 166.299C286.655 161.275 288.851 156.786 291.222 152.473C294.341 146.799 296.862 141.036 296.414 134.378C296.37 133.693 296.405 132.99 296.229 132.34C295.562 129.784 294.903 126.982 291.925 126.323C288.895 125.664 286.347 127.105 284.424 129.441C281.402 133.122 281.051 138.331 283.835 142.011C283.659 139.315 283.616 136.961 285.074 135.037C286.532 133.113 288.139 131.339 291.89 131.883C285.636 134.027 285.46 139.121 284.353 143.671C280.383 142.582 278.486 140.263 278.538 136.372C278.609 131.506 280.62 127.526 284.485 124.619C289.518 120.833 295.887 122.484 298.452 128.247C301.254 134.536 300.305 140.782 297.389 146.72C295.342 150.892 292.971 154.941 290.388 158.806C289.229 160.546 289.606 161.389 290.775 162.689C292.373 164.472 293.612 166.528 294.244 168.89C295.562 173.801 294.025 178.342 290.133 180.951C286.989 183.059 283.352 183.27 280.884 181.487C276.878 178.579 275.236 173.59 276.782 168.715C277.713 165.763 279.241 163.137 281.99 161.222Z" fill="#FE6035" stroke="#FE6035"/>
<path d="M252.062 337.49C255.392 336.014 258.317 333.414 259.889 330.726C261.154 328.566 264.422 327.942 264.211 324.701C264.097 322.988 267.847 323.111 266.899 320.467C270.219 319.149 268.392 314.362 271.827 313.15C272.564 312.886 272.582 312.517 272.389 311.885C272.266 311.463 272.143 310.664 272.301 310.576C275.525 308.907 272.881 304.102 276.535 302.697C277.501 302.328 277.123 301.643 276.851 301.019C276.561 300.36 276.359 299.543 276.833 299.069C278.415 297.479 278.379 295.371 279.065 293.535C279.838 291.471 280.76 289.503 281.41 287.307C281.84 285.866 282.323 284.373 282.807 282.959C283.685 280.412 284.23 277.671 285.319 275.343C286.004 273.885 286.663 273.112 286.241 271.338C285.723 269.186 288.016 268.94 289.412 268.193C288.446 266.77 287.12 265.189 289.113 263.792C290.422 262.87 290.51 262.027 290.132 260.718C289.983 260.217 289.983 259.356 290.291 259.084C291.793 257.731 293.119 256.537 292.407 254.095C292.179 253.313 293.47 252.294 294.683 252.847C295.833 253.383 296.229 254.332 295.798 255.658C294.762 258.864 293.365 261.983 293.409 265.452C293.409 265.672 293.4 266.023 293.268 266.102C290.132 267.868 291.028 271.592 290.15 274.149C289.298 276.643 287.111 279.34 287.98 282.458C288.007 282.564 288.042 282.739 287.98 282.792C285.53 285.032 286.751 288.941 284.274 291.075C283.553 291.69 283.632 291.954 283.869 292.674C284.247 293.798 284.23 295.134 283.228 295.827C281.673 296.89 281.454 298.164 281.919 299.78C281.946 299.886 281.963 300.079 281.911 300.114C278.845 301.95 281.015 306.474 277.747 308.213C277.483 308.354 277.079 308.749 277.123 308.863C278.485 312.236 273.952 313.764 274.62 316.9C271.256 317.981 272.977 323.049 269.2 323.813C269.622 327.063 265.845 327.59 265.08 330.208C264.466 332.334 261.707 332.088 260.161 333.766C258.334 335.768 255.304 337.271 252.062 337.49Z" fill="#FE6035" stroke="#FE6035"/>
<path d="M145.549 283.487C154.605 260.139 168.941 241.491 193.369 232.259C197.937 230.537 202.267 228.209 206.967 226.822C207.81 226.576 208.592 225.926 210.111 226.418C205.983 229.026 202.171 231.468 198.341 233.866C193.422 236.941 188.52 240.042 183.54 243.028C172.99 249.361 164.584 257.82 157.908 268.124C155.255 272.226 152.172 276.056 149.247 279.974C148.175 281.397 146.928 282.679 145.549 283.487Z" fill="#FE6035" stroke="#FE6035"/>
<path d="M374.617 152.322C377.446 152.287 380.283 152.252 383.111 152.217C383.867 154.509 383.674 156.872 383.647 159.218C383.419 180.176 382.83 201.135 381.803 222.076C381.741 223.385 382.013 224.834 380.933 225.985C379.106 224.852 379.238 223.034 379.202 221.373C378.728 200.178 379.94 178.999 379.949 157.812C379.949 156.126 380.819 154.791 381.495 153.165C379.22 152.305 376.734 153.543 374.617 152.322Z" fill="#FE6035" stroke="#FE6035"/>
<path d="M365.694 189.857C367.469 191.816 369.559 194.451 371.501 193.652C373.249 192.932 372.186 189.559 372.23 187.38C372.441 177.481 372.502 167.581 372.634 157.681C372.651 156.662 372.757 155.635 372.933 154.633C373.099 153.693 373.811 153.386 374.716 153.465C375.541 153.535 375.91 154.071 375.972 154.809C376.042 155.714 376.077 156.627 376.06 157.532C375.664 178.921 375.269 200.31 374.83 221.699C374.812 222.683 375.418 224.343 373.706 224.405C371.931 224.475 372.037 222.815 372.037 221.611C372.045 214.215 372.045 206.819 372.195 199.423C372.239 197.139 371.966 195.62 369.278 195.049C366.995 194.583 365.027 193.257 365.694 189.857Z" fill="#FE6035" stroke="#FE6035"/>
<path d="M390.358 182.303C411.862 198.105 428.384 216.692 430.238 244.634C426.909 227.778 418.818 213.416 406.995 201.065C402.586 196.454 397.851 192.15 392.598 188.522C390.332 186.958 389.287 185.307 390.358 182.303Z" fill="#FE6035" stroke="#FE6035"/>
<path d="M253.24 109.695C255.348 111.25 256.069 113.376 257.211 115.159C261.014 121.071 266.469 123.6 273.364 123.653C274.831 123.662 277.458 122.704 277.607 124.619C277.756 126.508 274.928 126.042 273.426 126.613C271.432 127.378 269.104 126.64 266.961 127.887C267.681 128.265 268.252 128.783 268.876 128.853C274.761 129.591 276.852 133.307 277.054 138.77C277.185 142.284 279.61 144.963 280.848 148.125C277.159 145.657 273.654 143.048 273.224 138.138C272.978 135.292 271.66 133.597 268.806 132.85C266.425 132.226 264.598 130.672 263.526 128.326C263.21 127.632 262.639 127.009 262.077 126.473C255.594 120.271 255.006 119.2 253.24 109.695Z" fill="#FE6035" stroke="#FE6035"/>
<path d="M375.339 334.197C374.232 329.893 374.39 326.37 374.144 322.918C373.266 310.796 372.238 298.683 373.02 286.509C373.064 285.797 372.581 284.769 373.6 284.436C374.425 284.163 375.084 284.901 375.673 285.384C377.21 286.64 377.35 288.511 377.658 290.303C378.466 294.933 378.325 299.57 377.904 304.226C377.043 313.906 376.244 323.586 375.339 334.197Z" fill="#FE6035" stroke="#FE6035"/>
<path d="M423.967 264.646C421.411 253.613 416.764 243.59 410.527 234.235C405.186 226.216 398.906 219.03 391.677 212.706C389.876 211.133 388.901 209.579 389.525 206.979C407.971 222.192 421.305 240.27 423.967 264.646Z" fill="#FE6035" stroke="#FE6035"/>
<path d="M248.033 125.585C238.651 122.001 230.315 123.995 222.577 129.722C221.777 130.32 220.785 130.715 219.818 131.005C218.835 131.295 218.106 130.654 217.526 129.898C216.779 128.932 217.377 128.229 217.983 127.509C225.168 118.944 239.556 117.899 248.033 125.585Z" fill="#FE6035" stroke="#FE6035"/>
<path d="M133.349 84.3691C133.947 84.8347 134.482 85.2124 134.974 85.6428C145.181 94.6816 155.397 103.703 165.56 112.785C166.228 113.383 167.765 113.857 166.404 115.421C165.025 117.002 164.181 115.807 163.373 115.034C153.553 105.749 143.758 96.4296 133.991 87.0834C133.455 86.5739 132.638 86.1523 132.673 85.2475C132.682 85.0016 133.024 84.7644 133.349 84.3691Z" fill="#FE6035" stroke="#FE6035"/>
<path d="M107.436 195.393C106.795 195.366 105.916 195.779 105.653 194.927C105.284 193.724 106.443 193.706 107.12 193.557C119.426 190.781 131.715 187.926 144.162 185.836C145.137 185.678 146.244 185.309 146.507 186.907C146.683 187.935 146.314 188.357 145.339 188.532C132.699 190.816 120.067 193.109 107.436 195.393Z" fill="#FE6035" stroke="#FE6035"/>
<path d="M246.643 134.052C243.973 135.994 241.689 137.654 239.387 139.305C235.022 142.441 230.314 143.065 225.175 141.466C223.576 140.974 223.409 140.605 224.332 139.244C225.842 136.995 227.186 135.379 230.498 136.336C233.432 137.188 236.629 136.661 239.387 135.01C241.557 133.719 243.841 133.613 246.643 134.052Z" fill="#FE6035" stroke="#FE6035"/>
<path d="M105.985 131.882C104.589 127.384 102.05 124.547 97.2188 123.589C101.988 122.755 104.272 119.584 105.88 114.48C107.215 119.435 109.692 122.404 114.251 123.475C109.929 124.89 106.916 127.261 105.985 131.882Z" fill="#FE6035" stroke="#FE6035"/>
<path d="M104.947 278.724C103.691 274.042 100.704 271.389 96.0488 270.335C100.608 269.202 103.735 266.751 104.877 262.008C105.896 266.742 108.794 269.228 113.362 270.335C108.917 271.451 105.825 273.778 104.947 278.724Z" fill="#FE6035" stroke="#FE6035"/>
<path d="M330.802 158.269C316.703 152.674 310.186 140.684 305.346 127.314C308.473 130.459 310.265 134.535 312.645 138.198C315.131 142.028 317.872 145.656 320.841 149.099C323.819 152.542 326.928 155.845 330.802 158.269Z" fill="#FE6035" stroke="#FE6035"/>
<path d="M410.845 179.729C409.43 174.581 406.839 171.665 402.061 170.778C406.549 169.653 409.562 167.325 410.722 162.74C411.389 164.594 412.101 166.236 413.278 167.65C414.551 169.179 416.501 169.539 419.093 170.936C413.98 171.893 411.916 174.871 410.845 179.729Z" fill="#FE6035" stroke="#FE6035"/>
<path d="M107.961 149.194C112.862 148.957 117.641 150.082 122.455 150.863C129.877 152.058 137.273 153.384 144.678 154.702C145.557 154.86 146.892 154.623 146.593 156.345C146.286 158.119 145.126 157.337 144.248 157.188C132.064 155.044 119.995 152.409 107.961 149.194Z" fill="#FE6035" stroke="#FE6035"/>
<path d="M123.736 107.551C135.085 113.225 145.837 119.559 156.272 126.436C156.861 126.823 157.88 127.148 157.256 128.237C156.536 129.502 155.719 128.694 154.99 128.272C146.338 123.204 138.177 117.389 129.85 111.82C127.795 110.432 125.774 108.974 123.736 107.551Z" fill="#FE6035" stroke="#FE6035"/>
<path d="M168.168 60.1523C172.12 66.8194 176.126 73.4689 180.026 80.1711C182.995 85.2659 185.832 90.4396 188.714 95.5871C189.126 96.3249 189.864 97.1331 188.503 97.7919C187.282 98.3804 187.15 97.2648 186.843 96.7114C180.465 84.9496 174.132 73.1615 167.799 61.3733C167.658 61.1098 167.711 60.7409 167.676 60.4159C167.851 60.328 168.01 60.2402 168.168 60.1523Z" fill="#FE6035" stroke="#FE6035"/>
<path d="M287.622 202.138C289.44 195.48 289.212 194.698 283.3 190.394C281.253 188.901 280.586 186.951 281.306 184.772C282.035 182.576 284.257 183.692 285.786 183.525C287.982 183.279 288.562 185.159 288.316 186.696C287.964 188.936 288.878 190.57 289.809 192.388C291.741 196.13 290.924 199.433 287.622 202.138Z" fill="#FE6035" stroke="#FE6035"/>
<path d="M264.852 92.4877C277.29 94.2357 289.28 92.3735 300.98 88.0078C289.684 95.8695 277.553 96.7303 264.852 92.4877Z" fill="#FE6035" stroke="#FE6035"/>
<path d="M130.062 231.574C138.486 225.979 146.287 220.796 154.096 215.622C154.974 215.034 155.861 214.472 156.634 215.807C157.223 216.817 156.564 217.159 155.835 217.607C148.588 222.07 141.368 226.567 134.112 231.012C133.207 231.565 132.223 232.215 130.062 231.574Z" fill="#FE6035" stroke="#FE6035"/>
<path d="M287.875 211.687C287.954 209.184 288.894 207.049 290.44 205.293C294.56 200.593 295.491 195.534 292.627 189.868C292.021 188.673 291.573 187.364 292.039 185.906C297.511 194.787 299.848 198.098 291.758 206.672C290.317 208.2 289.254 210.027 287.875 211.687Z" fill="#FE6035" stroke="#FE6035"/>
<path d="M186.818 48.4531C187.731 48.5146 187.81 49.3315 188.03 49.9025C191.06 57.7378 194.056 65.5907 197.06 73.4349C197.341 74.1727 197.78 75.016 196.691 75.4025C195.496 75.8329 195.408 74.5768 195.189 74.0058C192.202 66.1529 189.286 58.2737 186.37 50.3944C186.106 49.6829 185.649 48.866 186.818 48.4531Z" fill="#FE6035" stroke="#FE6035"/>
<path d="M177.462 104.362C169.697 96.5708 162.784 88.0855 156.863 78.8008C164.295 86.8557 171.348 95.2269 177.462 104.362Z" fill="#FE6035" stroke="#FE6035"/>
<path d="M114.637 170.305C121.532 170.305 127.98 170.296 134.427 170.305C137.387 170.305 140.356 170.331 143.317 170.349C144.01 170.349 144.783 170.357 144.783 171.306C144.792 172.088 144.09 172.088 143.545 172.097C134.111 172.264 124.668 172.624 115.243 171.736C115.199 171.728 115.164 171.561 114.637 170.305Z" fill="#FE6035" stroke="#FE6035"/>
<path d="M122.965 130.24C131.925 133.121 140.735 136.257 149.255 140.175C149.668 140.368 150.52 140.491 150.23 141.273C149.888 142.178 149.203 141.826 148.535 141.58C139.751 138.374 131.204 134.65 122.965 130.24Z" fill="#FE6035" stroke="#FE6035"/>
<path d="M149.965 201.662C141.436 206.458 132.142 209.26 122.77 211.887C131.387 207.328 140.531 204.139 149.965 201.662Z" fill="#FE6035" stroke="#FE6035"/>
<path d="M128.182 262.175C131.502 260.954 133.707 259.32 134.972 255.684C135.674 259.452 137.756 260.972 140.936 261.938C137.888 262.93 135.604 264.151 134.849 267.305C133.724 264.353 131.713 262.737 128.182 262.175Z" fill="#FE6035" stroke="#FE6035"/>
<path d="M346 63.8586C335.441 56.4274 324.233 50.1556 313.051 43.8398C325.182 48.6359 336.065 55.5138 346 63.8586Z" fill="#FE6035" stroke="#FE6035"/>
<path d="M71.1309 263.114C71.7984 262.807 71.737 262.122 71.9302 261.568C75.7337 271.187 80.0554 280.568 84.8076 289.756C79.3088 281.35 74.2492 272.733 71.1309 263.114Z" fill="#FE6035" stroke="#FE6035"/>
<path d="M213.537 71.0977C211.605 65.0192 210.682 58.8089 210.428 52.502C212.448 58.5629 213.906 64.6942 213.537 71.0977Z" fill="#FE6035" stroke="#FE6035"/>
<path d="M86.4592 142.555C87.7241 144.294 88.6727 145.822 90.8775 146.762C88.7079 147.728 87.4693 148.826 86.6524 150.706C85.6335 149.134 84.7551 147.737 83.3672 146.824C84.3686 145.524 85.8443 144.601 86.4592 142.555Z" fill="#FE6035" stroke="#FE6035"/>
<path d="M165.108 229.317C160.804 233.753 156.605 238.303 151.66 242.045C151.405 241.781 151.159 241.518 150.904 241.254C155.384 237.029 159.864 232.795 164.344 228.57C164.599 228.816 164.853 229.071 165.108 229.317Z" fill="#FE6035" stroke="#FE6035"/>
<path d="M326.648 70.4915C329.986 67.5928 329.986 67.5928 332.446 70.4212C331.647 71.326 330.847 72.222 330.004 73.1706C328.976 72.2044 328.124 70.9658 326.648 70.4915Z" fill="#FE6035" stroke="#FE6035"/>
<path d="M286.399 156.803C286.32 157.91 286.197 159.157 284.713 159.245C283.43 159.324 282.93 158.252 282.93 157.198C282.93 156.092 283.07 154.686 284.458 154.484C285.951 154.273 286.25 155.538 286.399 156.803Z" fill="#FE6035" stroke="#FE6035"/>
<path d="M324.346 237.773C324.285 238.889 323.898 239.837 322.967 240.514C322.976 240.18 323.108 239.635 322.967 239.548C321.895 238.906 320.007 238.511 321.386 236.816C322.624 235.305 323.248 237.712 324.346 237.773Z" fill="#FE6035" stroke="#FE6035"/>
<path d="M337.303 272.726C337.777 272.489 338.55 272.849 338.717 272.006C340.412 272.471 341.958 273.2 343.575 274.72C341.124 274.246 339.051 274.017 337.303 272.726Z" fill="#FE6035" stroke="#FE6035"/>
<path d="M323.064 267.149C322.52 267.008 322.177 266.718 322.3 266.095C322.107 265.041 322.581 264.435 323.583 264.197C324.075 264.083 324.479 264.285 324.646 264.724C325.252 266.253 323.495 266.27 323.064 267.149Z" fill="#FE6035" stroke="#FE6035"/>
<path d="M290.906 71.6504C291.415 72.4322 292.302 71.8788 292.935 72.2389C291.011 73.2579 288.885 73.1964 286.232 73.6531C287.814 71.993 289.491 72.1247 290.906 71.6504Z" fill="#FE6035" stroke="#FE6035"/>
<path d="M320.841 251.303C320.859 251.847 320.868 252.383 320.885 252.928C320.472 253.103 320.077 253.306 319.655 253.437C318.847 253.701 317.969 253.78 317.723 252.761C317.468 251.672 318.39 251.514 319.19 251.417C319.734 251.355 320.288 251.338 320.841 251.303Z" fill="#FE6035" stroke="#FE6035"/>
<path d="M328.335 232.108C328.37 233.004 327.799 233.408 327.052 233.663C326.64 232.758 324.409 232.67 325.498 231.247C326.64 229.754 327.606 231.054 328.335 232.108Z" fill="#FE6035" stroke="#FE6035"/>
<path d="M321.802 259.04C321.644 259.901 321.134 260.41 320.238 260.384C319.623 260.366 319.184 260.006 319.237 259.356C319.316 258.434 319.966 258.03 320.827 258.056C321.389 258.073 321.951 258.232 321.802 259.04Z" fill="#FE6035" stroke="#FE6035"/>
<path d="M319.322 245.942C318.584 245.872 318.057 245.564 318.118 244.73C318.171 244.01 318.549 243.421 319.269 243.333C320.13 243.228 320.349 243.904 320.376 244.607C320.411 245.327 320.174 245.881 319.322 245.942Z" fill="#FE6035" stroke="#FE6035"/>
<path d="M227.906 44.1481C227.906 42.8129 227.906 41.4777 227.906 40.1426C229.32 41.4338 228.908 42.8217 227.906 44.1481Z" fill="#FE6035" stroke="#FE6035"/>
<path d="M339.93 361.542C336.838 361.648 334.3 363.159 331.867 364.915C325.709 369.351 320.667 374.912 315.651 380.648C317.689 375.693 319.736 370.792 321.317 365.715C322.477 361.999 321.317 359.232 318.401 358.433C314.887 357.475 311.382 359.531 310.662 363.167C309.476 369.114 306.973 374.666 305.497 380.489C303.055 390.134 296.801 396.204 288.298 400.447C282.931 403.126 279.356 401.272 278.609 395.326C277.994 390.45 278.267 385.567 279.004 380.683C279.549 377.081 280.823 374.262 283.572 371.565C294.719 360.629 305.506 349.332 314.94 336.833C319.754 330.456 324.479 324.017 326.956 316.296C328.16 312.536 328.968 308.557 325.692 305.404C322.292 302.127 318.155 302.804 314.114 304.104C313.043 304.446 312.015 304.973 311.022 305.535C306.718 307.96 302.906 310.981 299.594 314.671C292.593 322.48 287.604 331.536 283.326 341.005C280.102 348.129 277.265 355.429 274.235 362.711C270.141 359.285 265.785 358.468 260.312 360.453C248.77 364.634 239.933 372.417 232.88 382.202C228.119 388.799 222.154 393.964 215.601 398.558C214.152 399.568 212.413 400.824 210.559 399.788C208.592 398.69 208.724 396.503 208.794 394.579C209.031 388.07 211.385 382.132 213.976 376.291C216.181 371.328 215.312 370.08 209.734 370.318C207.52 370.414 206.211 371.574 205.017 373.216C201.74 377.74 198.49 382.273 195.091 386.7C191.463 391.425 187.317 395.659 182.231 398.839C180.553 399.893 178.612 401.553 176.609 400.13C174.299 398.497 175.248 395.914 175.977 393.824C176.873 391.267 178.252 388.878 179.394 386.401C179.894 385.312 180.975 384.047 179.587 383.054C178.015 381.93 178.928 381.227 179.684 380.366C183.057 376.51 185.824 372.153 189.724 368.736C190.918 367.691 191.937 366.382 191.235 364.538C190.541 362.711 189.012 361.946 187.273 361.7C183.549 361.156 180.228 361.955 177.83 365.126C173.649 370.642 169.995 376.299 168.396 383.327C167.562 386.998 165.673 390.468 165.304 394.386C164.452 403.442 171.998 409.037 180.457 405.577C184.365 403.978 187.405 401.255 190.093 398.128C193.062 394.676 195.89 391.109 199.044 387.279C199.044 390.09 198.964 392.374 199.061 394.649C199.43 403.521 205.298 407.254 213.555 403.855C217.165 402.37 220.406 400.271 223.296 397.636C224.421 396.608 225.589 395.624 227.047 394.351C226.309 405.981 234.768 408.247 241.286 405.972C242.674 405.489 244.079 404.918 245.3 404.118C248.823 401.808 252.398 399.551 255.692 396.933C260.11 393.419 264.274 389.59 268.789 385.69C269.237 389.432 268.78 392.954 269.588 396.388C271.38 403.987 277.019 407.667 284.617 406.016C287.086 405.48 289.405 404.522 291.487 403.091C293.542 401.676 295.501 400.122 298.004 398.251C297.486 399.586 297.223 400.315 296.933 401.026C295.035 405.62 295.053 405.48 299.779 406.042C302.906 406.42 304.698 405.568 306.077 402.511C309.213 395.536 313.57 389.23 318.129 383.107C321.686 378.329 325.727 374.033 331.076 371.126C333.43 369.852 334.95 369.457 335.213 372.997C335.415 375.667 336.874 377.696 339.755 378.293C340.554 378.46 341.459 378.733 341.555 377.503C341.863 373.699 344.033 370.414 344.533 366.672C344.972 363.273 343.356 361.428 339.93 361.542ZM301.79 329.085C305.655 323.288 309.889 317.78 315.116 313.134C316.758 311.675 318.699 309.225 320.913 310.7C322.986 312.088 321.932 314.961 321.185 317.042C319.068 322.998 315.441 328.137 311.857 333.258C303.538 345.151 293.735 355.771 283.449 365.987C288.5 353.101 294.131 340.592 301.79 329.085ZM272.698 368.719C271.784 371.029 271.257 373.506 270.633 375.931C270.317 377.169 269.834 378.197 268.877 379.128C261.612 386.243 253.952 392.857 245.388 398.374C243.552 399.551 241.435 401.606 239.248 399.832C237.166 398.136 238.212 395.466 239.125 393.455C244.782 381.025 252.784 370.88 266.373 366.417C267.656 365.996 269.017 365.785 270.343 365.486C272.803 365.425 273.717 366.128 272.698 368.719Z" fill="#FE6035" stroke="#FE6035"/>
<path d="M414.796 120.754C413.356 113.015 409.508 106.234 405.573 99.5842C400.513 91.0374 398.344 82.2358 401.743 72.5295C402.226 71.1416 403.289 69.8503 402.92 67.5577C397.492 74.2687 394.505 81.1114 395.876 89.3596C396.833 95.1307 399.082 100.498 401.163 105.918C403.052 110.819 404.721 115.773 404.853 121.088C405.002 127.588 401.137 131.866 395.199 131.936C389.472 132.006 384.544 127.21 384.307 121.395C384.245 119.831 384.483 118.909 386.38 118.663C389.033 118.321 390.271 116.898 389.551 113.885C387.144 103.792 386.134 93.453 384.465 83.2284C382.787 72.9599 381.294 62.665 379.713 52.3789C378.316 57.9041 377.376 63.3941 376.349 68.8665C373.59 83.6325 371.579 98.5477 367.863 113.129C366.879 116.977 367.582 118.294 371.517 118.101C373.274 118.022 373.45 118.689 373.45 119.963C373.432 126.13 367.231 131.576 360.757 131.136C355.32 130.768 351.762 125.567 352.597 119.102C353.009 115.94 353.765 112.866 354.837 109.835C357.287 102.869 360.564 96.176 361.662 88.7623C362.812 80.9797 359.641 71.3436 354.178 67.2503C354.758 68.6557 355.206 69.6746 355.592 70.7112C357.735 76.5086 358.526 82.4378 356.857 88.4812C355.733 92.5658 353.651 96.2463 351.481 99.8741C347.792 106.032 344.208 112.233 342.504 119.313C339.122 133.403 350.33 145.367 364.534 142.766C366.695 142.371 368.786 141.633 371.192 140.975C370.955 143.522 370.727 145.894 370.516 148.265C370.244 151.305 371.307 152.359 374.627 152.323C377.464 152.64 380.293 152.912 383.121 152.218C388.681 149.706 384.483 144.901 385.791 141.317C387.399 141.835 389.085 142.468 390.816 142.925C404.985 146.702 417.484 135.186 414.796 120.754ZM373.16 112.268C375.769 100.682 377.227 89.4738 379.283 78.3445C381.408 89.6671 382.234 101.139 384.816 113.199C380.908 110.02 377.332 109.44 373.16 112.268ZM407.277 135.572C402.095 141.203 394.066 141.326 383.051 135.792C381.953 139.06 382.295 142.354 382.62 145.569C382.858 147.958 382.014 148.406 379.862 148.397C374.267 148.371 374.284 148.459 374.337 142.898C374.355 140.412 374.557 137.891 373.573 135.493C362.567 140.878 354.635 140.676 349.294 134.914C344.375 129.608 344.146 121.149 349.065 112.321C348.354 116.59 347.572 120.174 348.152 123.89C348.995 129.336 351.85 133.174 356.98 135.054C362.11 136.934 367.064 136.099 370.903 132.217C375.268 127.799 378.509 122.73 375.321 116.098C374.864 115.15 375.611 114.93 376.076 114.57C377.728 113.305 381.074 113.806 382.278 115.475C382.533 115.826 382.796 116.054 382.436 116.599C378.369 122.756 381.795 127.684 385.466 132.182C389.165 136.697 394.69 137.645 400.417 135.353C406.065 133.095 408.876 128.677 409.324 122.721C409.535 119.884 409.21 117.064 408.507 113.885C412.714 120.745 412.056 130.381 407.277 135.572Z" fill="#FE6035" stroke="#FE6035"/>
<path d="M339.413 227.734C345.597 221.937 351.394 215.858 354.785 207.909C362.085 190.824 353.573 171.262 336.233 165.807C327.397 163.023 318.718 163.356 310.768 168.961C308.739 170.392 308.326 171.648 310.303 173.484C312.306 175.338 314.264 177.27 316.004 179.378C318.27 182.128 320.686 182.664 323.646 180.635C326.773 178.491 329.988 178.684 333.378 180.09C342.435 183.849 345.913 194.707 341.038 204.404C338.868 208.717 335.838 212.415 332.474 215.841C327.599 220.786 322.249 225.336 318.41 231.187C308.397 246.462 310.479 263.995 326.334 273.605C333.976 278.243 342.321 280.324 351.298 277.742C340.827 276.995 331.086 274.369 323.066 267.14C322.715 266.858 322.715 266.323 322.302 266.085C315.239 258.347 314.431 249.413 317.778 239.971C320.264 232.97 324.981 227.374 330.269 222.253C334.529 218.125 338.377 213.636 341.697 208.691C350.92 194.961 343.7 175.838 328.02 176.049C327.282 176.058 326.597 175.891 326.615 174.978C326.65 172.632 324.902 171.113 324.059 168.978C326.105 170.199 329.803 167.002 330.55 171.745C330.664 172.483 331.709 172.738 332.5 171.982C334.74 169.857 334.924 169.874 335.873 172.72C336.383 174.257 337.358 175.118 338.464 173.757C339.404 172.597 340.081 172.667 340.959 173.291C341.785 173.88 343.05 174.336 342.206 175.917C341.688 176.884 342.075 178.605 343.173 178.21C347.749 176.559 347.503 180.819 349.137 182.725C349.954 183.683 349.945 184.482 348.39 184.807C347.635 184.965 346.888 185.562 347.248 186.555C347.609 187.539 348.487 188.101 349.427 187.662C351.763 186.573 351.526 188.496 351.772 189.629C352.018 190.745 353.301 192.405 350.727 192.633C349.998 192.704 349.383 193.161 349.278 193.872C349.155 194.636 349.787 195.26 350.428 195.313C351.86 195.436 352.721 195.743 352.484 197.5C352.273 199.107 352.009 200.232 350.007 200.486C348.469 200.68 347.248 201.936 349.119 203.209C350.27 203.991 350.894 204.492 350.226 205.766C349.655 206.855 349.646 208.471 347.512 207.988C346.238 207.698 344.604 208.392 346.194 210.026C347.468 211.326 347.02 212.195 346.221 213.232C345.395 214.304 345.017 215.762 342.856 214.673C341.354 213.917 340.406 215.261 340.985 217.062C341.714 219.328 339.589 221.84 337.375 221.155C335.451 220.558 335.118 221.12 335.601 222.842C336.242 225.108 335.021 226.267 332.667 225.626C331.657 225.354 330.234 225.767 330.717 226.557C332.658 229.764 329.531 230.449 328.336 232.091C327.845 232.557 327.309 232.978 327.054 233.646C326.149 235.016 325.253 236.387 324.348 237.766C323.215 238.337 323.593 239.672 322.969 240.506C321.292 243.915 320.501 247.49 320.844 251.293C320.51 251.847 320.466 252.391 320.888 252.918C322.372 262.827 328.521 268.861 337.305 272.709C338.069 273.051 338.772 273.271 338.719 271.988C337.375 271.136 335.996 270.337 334.696 269.423C322.636 260.973 320.958 247.358 330.717 236.413C333.44 233.374 336.418 230.537 339.413 227.734ZM320.071 177.165C317.936 176.893 315.907 175.742 315.644 173.607C315.459 172.061 317.453 171.359 318.92 171.341C321.16 171.306 321.845 173.08 322.223 174.433C322.46 176.568 321.502 177.349 320.071 177.165Z" fill="#FE6035" stroke="#FE6035"/>
<path d="M324.494 196.621C324.433 194.671 323.704 192.835 322.781 191.113C321.666 189.058 320.348 186.95 317.66 187.327C315.008 187.696 314.551 190.209 314.252 192.29C313.699 196.138 312.847 199.836 311.327 203.437C309.974 206.643 310.458 209.876 312.32 212.898C316.255 219.284 315.587 225.415 311.169 231.318C307.48 236.246 302.657 239.83 297.466 242.974C288.093 248.666 277.658 252.118 267.873 256.958C262.172 259.778 256.62 263.054 250.19 264.003C244.63 264.829 239.008 265.347 234.01 261.913C227.721 257.591 225.428 249.887 227.554 241.156C228.933 235.508 231.436 230.334 233.791 225.002C226.447 232.328 222.556 241.165 223.566 251.618C224.471 260.99 230.453 266.849 239.79 268.342C247.054 269.502 253.836 267.815 260.248 264.539C268.356 260.393 276.657 256.66 284.984 252.979C299.355 246.628 311.52 238.213 319.119 223.579C323.651 214.795 324.775 206.011 324.494 196.621ZM317.898 191.377C319.733 190.99 320.506 192.765 321.025 194.328C321.06 194.434 321.095 194.548 321.121 194.653C321.64 196.533 322.167 198.43 320.594 200.082C320.085 200.618 319.426 200.679 318.732 200.293C316.659 199.151 316.193 197.245 316.185 194.987C316.229 193.59 316.316 191.702 317.898 191.377ZM321.192 211.035C320.744 213.513 319.9 215.823 318.223 218.827C318.091 212.933 312.372 208.892 315.728 203.007C316.237 203.2 316.756 203.402 317.265 203.604C322.061 205.466 322.149 205.686 321.192 211.035Z" fill="#FE6035" stroke="#FE6035"/>
<path d="M399.355 461.768L402.06 454.39L394.857 436.119H399.671L403.255 445.992C403.442 446.531 403.63 447.187 403.817 447.96C404.005 448.71 404.145 449.33 404.239 449.822C404.356 449.33 404.508 448.71 404.696 447.96C404.883 447.187 405.07 446.531 405.258 445.992L408.631 436.119H413.269L403.958 461.768H399.355Z" fill="#FE6035"/>
<path d="M360.227 461.77V458.116H365.954C366.938 458.116 367.676 457.87 368.168 457.378C368.66 456.91 368.906 456.23 368.906 455.34V453.9L368.976 450.281H368.027L368.976 449.332C368.976 450.901 368.507 452.131 367.57 453.021C366.657 453.888 365.415 454.321 363.846 454.321C361.878 454.321 360.309 453.654 359.138 452.319C357.99 450.983 357.416 449.18 357.416 446.908V443.148C357.416 440.899 357.99 439.107 359.138 437.772C360.309 436.437 361.878 435.77 363.846 435.77C365.415 435.77 366.657 436.215 367.57 437.105C368.507 437.971 368.976 439.189 368.976 440.759L368.027 439.81H368.976L368.87 436.121H373.262V455.446C373.262 457.39 372.618 458.924 371.33 460.049C370.042 461.196 368.273 461.77 366.024 461.77H360.227ZM365.322 450.527C366.446 450.527 367.313 450.199 367.922 449.543C368.554 448.864 368.87 447.927 368.87 446.732V443.359C368.87 442.164 368.554 441.239 367.922 440.583C367.313 439.904 366.446 439.564 365.322 439.564C364.197 439.564 363.331 439.892 362.722 440.548C362.113 441.204 361.808 442.141 361.808 443.359V446.732C361.808 447.95 362.113 448.887 362.722 449.543C363.331 450.199 364.197 450.527 365.322 450.527Z" fill="#FE6035"/>
<path d="M326.79 455.76C325.151 455.76 323.722 455.456 322.504 454.846C321.309 454.214 320.372 453.336 319.693 452.211C319.037 451.064 318.709 449.717 318.709 448.171V443.392C318.709 441.846 319.037 440.511 319.693 439.387C320.372 438.239 321.309 437.36 322.504 436.751C323.722 436.119 325.151 435.803 326.79 435.803C328.453 435.803 329.882 436.119 331.077 436.751C332.272 437.36 333.197 438.239 333.853 439.387C334.532 440.511 334.872 441.834 334.872 443.357V448.171C334.872 449.717 334.532 451.064 333.853 452.211C333.197 453.336 332.272 454.214 331.077 454.846C329.882 455.456 328.453 455.76 326.79 455.76ZM326.79 451.93C327.961 451.93 328.863 451.614 329.496 450.982C330.152 450.326 330.48 449.389 330.48 448.171V443.392C330.48 442.151 330.152 441.214 329.496 440.581C328.863 439.949 327.961 439.633 326.79 439.633C325.643 439.633 324.741 439.949 324.085 440.581C323.429 441.214 323.101 442.151 323.101 443.392V448.171C323.101 449.389 323.429 450.326 324.085 450.982C324.741 451.614 325.643 451.93 326.79 451.93Z" fill="#FE6035"/>
<path d="M291.106 455.444C289.841 455.444 288.729 455.187 287.768 454.671C286.831 454.156 286.093 453.43 285.555 452.493C285.016 451.532 284.746 450.432 284.746 449.19V433.765H278.562V429.795H289.138V449.19C289.138 449.893 289.338 450.455 289.736 450.877C290.157 451.275 290.72 451.474 291.422 451.474H297.255V455.444H291.106Z" fill="#FE6035"/>
<path d="M249.519 455.76C247.879 455.76 246.45 455.456 245.232 454.846C244.038 454.214 243.101 453.336 242.421 452.211C241.765 451.064 241.438 449.717 241.438 448.171V443.392C241.438 441.846 241.765 440.511 242.421 439.387C243.101 438.239 244.038 437.36 245.232 436.751C246.45 436.119 247.879 435.803 249.519 435.803C251.182 435.803 252.611 436.119 253.805 436.751C255 437.36 255.925 438.239 256.581 439.387C257.26 440.511 257.6 441.834 257.6 443.357V448.171C257.6 449.717 257.26 451.064 256.581 452.211C255.925 453.336 255 454.214 253.805 454.846C252.611 455.456 251.182 455.76 249.519 455.76ZM249.519 451.93C250.69 451.93 251.592 451.614 252.224 450.982C252.88 450.326 253.208 449.389 253.208 448.171V443.392C253.208 442.151 252.88 441.214 252.224 440.581C251.592 439.949 250.69 439.633 249.519 439.633C248.371 439.633 247.469 439.949 246.813 440.581C246.157 441.214 245.83 442.151 245.83 443.392V448.171C245.83 449.389 246.157 450.326 246.813 450.982C247.469 451.614 248.371 451.93 249.519 451.93Z" fill="#FE6035"/>
<path d="M203.645 455.446V436.121H207.791V439.81H208.88L207.58 442.059C207.58 439.974 208.048 438.405 208.985 437.351C209.922 436.297 211.304 435.77 213.131 435.77C215.216 435.77 216.856 436.414 218.05 437.702C219.245 438.99 219.842 440.771 219.842 443.043V444.448H215.239V443.359C215.239 442.117 214.912 441.157 214.256 440.478C213.623 439.798 212.745 439.459 211.62 439.459C210.473 439.459 209.583 439.798 208.95 440.478C208.341 441.157 208.037 442.117 208.037 443.359V455.446H203.645Z" fill="#FE6035"/>
<path d="M174.355 455.445C172.504 455.445 171.052 454.929 169.998 453.899C168.967 452.868 168.452 451.451 168.452 449.647V440.09H163.217V436.12H168.452V430.674H172.879V436.12H180.293V440.09H172.879V449.647C172.879 450.865 173.477 451.474 174.671 451.474H179.942V455.445H174.355Z" fill="#FE6035"/>
<path d="M132.873 455.76C131.397 455.76 130.109 455.526 129.008 455.057C127.907 454.589 127.04 453.945 126.408 453.125C125.799 452.282 125.471 451.298 125.424 450.173H129.816C129.863 450.782 130.155 451.274 130.694 451.649C131.256 452.024 131.983 452.211 132.873 452.211H134.419C135.496 452.211 136.304 452 136.843 451.579C137.382 451.157 137.651 450.583 137.651 449.857C137.651 449.178 137.405 448.651 136.913 448.276C136.445 447.878 135.707 447.62 134.7 447.503L132.31 447.152C130.109 446.847 128.492 446.262 127.462 445.395C126.431 444.528 125.916 443.228 125.916 441.495C125.916 439.691 126.525 438.297 127.743 437.314C128.961 436.306 130.753 435.803 133.119 435.803H134.454C136.609 435.803 138.33 436.283 139.619 437.243C140.907 438.204 141.598 439.492 141.692 441.108H137.3C137.23 440.593 136.937 440.171 136.421 439.843C135.93 439.515 135.274 439.351 134.454 439.351H133.119C132.111 439.351 131.374 439.539 130.905 439.914C130.46 440.265 130.237 440.792 130.237 441.495C130.237 442.151 130.437 442.643 130.835 442.97C131.233 443.275 131.877 443.498 132.767 443.638L135.262 443.989C137.557 444.317 139.244 444.938 140.322 445.852C141.422 446.742 141.973 448.065 141.973 449.822C141.973 451.696 141.329 453.16 140.04 454.214C138.776 455.245 136.902 455.76 134.419 455.76H132.873Z" fill="#FE6035"/>
<path d="M85.6641 455.444L92.1291 429.795H97.786L104.286 455.444H99.7888L98.3833 449.225H91.5669L90.1615 455.444H85.6641ZM92.3751 445.641H97.5752L96.0292 438.755C95.7715 437.607 95.549 436.576 95.3616 435.663C95.1742 434.726 95.0454 434.046 94.9751 433.625C94.9049 434.046 94.776 434.726 94.5886 435.663C94.4247 436.576 94.2021 437.595 93.921 438.719L92.3751 445.641Z" fill="#FE6035"/>
</svg>
