<svg width="1037" height="384" viewBox="0 0 1037 384" fill="none" xmlns="http://www.w3.org/2000/svg">
<path d="M167.925 85.6508C164.886 84.5177 162.295 82.6819 159.967 80.4683C158.711 79.2737 157.894 77.7716 157.428 76.085C156.945 74.3458 156.875 72.5978 158.079 71.2099C159.317 69.7869 160.933 70.7883 162.242 71.2187C173.143 74.8114 184.018 74.2492 194.866 71.1133C197.106 70.4633 199.381 69.7166 201.489 66.9058C197.519 67.6524 194.392 68.2761 191.256 68.8295C182.524 70.3667 173.784 70.5863 165.141 68.3727C160.213 67.1078 159.721 66.2909 159.897 61.934C165.387 65.43 171.457 66.5456 177.878 66.5105C175.076 65.5618 172.291 64.5692 169.471 63.6644C166.256 62.6367 163.498 60.8272 161.091 58.5434C157.349 54.9946 157.218 49.9087 160.784 46.0437C162.391 50.7783 165.721 53.8176 170.912 56.3034C168.259 53.1588 166.09 50.6817 165.132 47.4404C163.718 42.6355 164.201 41.0807 167.978 39.4732C168.795 41.476 168.347 44.0497 170.534 45.5342C172.019 37.0225 171.263 36.2583 181.541 37.409C191.396 38.507 199.961 42.3632 204.695 52.0607C197.8 46.4214 189.727 43.593 181.11 41.8976C188.55 48.3188 199.267 49.5134 206.127 57.6825C195.92 60.8009 186.337 60.0454 176.156 55.1176C179.547 59.3251 183.658 60.3792 187.602 61.4157C193.496 62.9617 199.53 63.1374 205.565 61.9076C206.452 61.7232 207.374 61.6266 208.279 61.6353C209.14 61.6529 209.746 62.2502 210.124 62.9793C210.642 63.9807 209.72 64.3935 209.193 64.9118C207.172 66.8618 204.028 67.2132 202.095 69.9538C204.862 70.3491 207.19 69.5937 209.562 69.0315C210.589 68.7855 211.74 67.9598 212.601 69.3916C213.339 70.6038 213.119 71.7985 212.539 72.9755C211.845 74.3722 210.686 75.3208 209.289 75.8654C197.387 80.5385 185.204 83.4285 172.423 81.7771C174.979 83.4812 179.722 84.6583 185.344 84.8164C193.627 85.0535 201.647 83.4988 209.5 80.969C210.466 80.6527 211.494 80.3365 212.32 79.7656C218.741 75.3384 219.751 74.2492 217.195 66.2557C216.176 63.0847 215.965 59.413 212.004 58.0251C211.6 57.8846 211.459 56.8305 211.31 56.1717C208.13 42.2841 198.546 35.4853 185.318 32.8677C180.039 31.8224 174.689 31.4447 169.463 33.3332C156.471 38.0151 150.366 47.6248 154.547 61.3982C155.232 63.6557 155.294 65.4212 153.924 67.4591C151.851 70.5511 151.666 74.1262 152.439 77.675C152.747 79.1068 152.659 79.871 151.288 80.6703C136.118 89.507 128.88 103.377 126.395 120.207C124.726 131.486 122.96 142.703 117.531 152.989C112.481 162.564 105.532 170.434 96.564 176.416C93.9991 178.129 93.0065 179.974 93.7004 182.995C111.506 171.857 124.699 157.408 128.406 135.922C129.451 129.87 130.514 123.826 131.806 117.827C134.845 103.658 141.67 91.9753 154.301 84.1663C155.882 83.1913 157.112 82.7433 158.869 83.8853C160.968 85.2468 163.419 85.9495 165.931 86.2745C166.687 86.4063 167.627 87.1266 167.925 85.6508Z" fill="white" stroke="white"/>
<path d="M346.62 175.389C365.708 190.19 369.502 210.411 363.037 225.985C357.178 240.101 342.597 253.83 315.261 251.897C324.774 259.777 343.783 263 359.594 254.717C374.571 246.864 384.426 228.769 381.984 211.667C379.472 194.028 367.087 179.104 346.62 175.389Z" fill="white" stroke="white"/>
<path d="M249.003 109.878C247.097 114.103 243.654 113.743 240.413 113.137C234.246 111.978 228.721 109.246 224.18 104.889C221.949 102.746 220.815 102.069 218.066 104.801C202.606 120.156 184.142 124.75 163.113 118.987C162.059 118.698 161.058 117.933 159.441 118.592C168.814 123.098 178.301 125.11 188.394 124.319C201.016 123.327 211.197 117.67 219.445 108.288C220.886 106.646 221.782 106.347 223.618 108.043C228.888 112.926 234.905 116.545 242.319 117.064C243.505 117.143 243.935 117.556 243.9 118.706C243.847 120.164 243.891 121.631 243.891 123.379C237.294 121.807 230.882 120.015 223.293 122.229C227.992 123.133 231.822 123.792 235.617 124.627C237.944 125.136 240.219 125.909 242.512 126.577C243.61 126.902 244.989 127.236 244.48 128.746C243.97 130.257 242.714 129.142 241.915 128.949C237.382 127.851 232.911 126.392 228.15 126.647C226.92 126.717 225.62 126.498 224.285 127.692C231.058 128.518 237.206 130.609 243.303 132.945C244.743 133.499 245.446 134.228 245.806 135.703C246.93 140.333 247.334 144.839 245.384 149.424C243.548 153.755 244.55 158.155 245.736 162.495C246.974 167.001 248.52 171.402 250.277 175.723C251.366 178.394 250.69 179.228 247.765 178.973C245.947 178.815 244.146 178.446 242.336 178.367C238.094 178.192 236.917 180.098 238.928 183.813C239.297 184.499 239.789 185.122 240.246 185.799C236.881 186.976 233.552 187.924 229.784 188.003C233.122 190.103 234.861 193.353 237.259 196.006C238.287 197.139 238.656 197.745 237.391 198.975C235.406 200.89 235.616 203.525 235.573 206.037C235.458 211.395 233.535 213.161 228.176 212.933C225.647 212.818 223.231 212.133 220.842 211.36C212.154 208.558 203.801 204.948 195.719 200.732C192.197 198.896 189.281 196.278 186.672 193.274C188.13 196.919 190.757 199.669 193.55 202.277C197.678 206.134 202.501 208.953 207.631 211.202C209.985 212.239 210.521 213.503 209.344 215.656C208.202 217.746 207.086 219.863 205.9 221.927C202.053 228.638 201.833 235.507 204.864 242.57C205.672 244.45 206.304 246.4 207.007 248.323C207.227 248.938 207.209 249.931 208.061 249.817C208.896 249.702 209.247 248.824 209.185 247.972C209.054 246.048 209.027 244.089 208.667 242.201C206.937 233.294 207.297 224.554 210.257 215.919C210.969 213.855 211.698 213.328 213.85 214.083C218.242 215.638 222.704 217.043 227.333 217.773C235.766 219.116 240.562 214.127 238.788 205.747C238.015 202.111 238.348 199.177 242.336 197.683C242.916 197.464 243.83 196.559 243.733 196.348C242.046 192.448 247.756 188.943 244.234 184.903C243.127 183.629 244.251 182.874 245.674 182.838C247.492 182.795 249.337 182.926 251.138 182.715C255.196 182.241 256.645 179.729 254.95 175.978C252.508 170.567 250.681 164.954 249.188 159.218C248.353 156.003 248.327 152.885 249.592 149.837C251.691 144.786 251.709 139.762 250.356 134.465C248.687 127.947 247.668 121.289 249.662 114.578C250.093 113.12 250.031 111.662 249.003 109.878Z" fill="white" stroke="white"/>
<path d="M93.8147 258.149C86.6294 257.455 79.936 257.403 73.5236 259.792C73.5324 260.126 73.5412 260.46 73.55 260.802C77.5731 260.802 81.5961 260.705 85.6192 260.837C88.4652 260.925 91.3025 261.329 93.8235 262.884C95.2201 263.745 96.3796 264.781 96.8013 266.459C97.6094 269.63 96.8013 270.587 93.639 270.096C88.1842 269.252 82.7556 269.34 76.5102 270.684C80.1819 272.133 83.4144 271.773 86.4537 272.3C88.922 272.731 91.4255 272.959 93.762 273.917C95.6769 274.698 96.9594 276.016 97.056 278.265C97.1878 281.506 96.4675 282.068 93.2174 281.445C89.168 280.663 85.0922 280.241 80.8056 281.427C82.2989 282.973 84.328 282.727 86.0145 283.263C88.5092 284.062 91.1092 284.537 93.3843 285.898C94.5438 286.601 95.8087 287.391 94.9127 289.131C94.1485 290.615 93.3316 291.757 91.2761 291.467C80.911 290.009 75.5615 293.417 73.1898 303.624C71.7229 309.931 68.7276 314.657 63.0092 317.775C60.128 319.348 58.6874 322.396 57.8354 327.71C62.0693 323.002 67.2518 320.56 71.6702 317.073C74.9378 314.499 76.4575 310.792 77.1426 306.734C77.5379 304.388 77.7487 301.999 78.7765 299.777C81.1745 294.568 84.7847 293.259 89.8707 295.833C92.8221 297.326 97.5567 295.288 98.356 291.212C99.1905 286.908 100.745 282.604 100.754 278.282C100.754 274.804 100.104 271.404 100.868 267.829C101.483 264.948 100.139 262.146 97.6445 260.354C96.3269 259.414 96.283 258.58 96.3709 257.069C96.5993 253.151 95.2202 249.497 93.8147 245.764C97.5919 248.496 100.798 251.798 103.152 255.857C103.872 257.104 103.53 257.411 101.167 259.625C104.549 260.477 106.657 258.404 106.218 254.645C105.629 249.567 97.627 241.934 92.4971 241.714C88.3774 241.53 84.2489 241.785 80.3664 243.269C74.0946 245.667 67.8843 248.206 61.6828 250.762C58.3448 252.141 56.3157 254.688 54.9893 258.079C50.8784 268.558 46.6796 279.011 43.3417 289.763C40.0565 300.321 33.7759 309.044 27.144 317.617C26.292 318.724 25.1676 319.752 25.0007 321.781C27.346 320.727 28.6637 318.996 30.2799 317.687C39.3187 310.37 45.2215 301.156 48.4277 289.886C51.2561 279.942 54.5941 270.122 58.4854 260.512C59.7591 257.359 61.8672 255.259 64.9504 253.889C70.8796 251.245 76.8615 248.724 83.1246 247.029C87.7977 245.764 89.4578 246.677 91.4167 251.157C92.339 253.327 92.9539 255.637 93.8147 258.149Z" fill="white" stroke="white"/>
<path d="M387.701 277.116C392.998 265.161 395.871 252.53 397.724 239.679C402.652 205.491 397.768 172.56 382.94 141.473C364.064 101.893 334.224 73.1338 293.993 55.557C269.653 44.9195 244.065 40.0356 217.441 40.9052C216.65 40.9316 215.851 40.9931 215.06 41.0721C214.911 41.0897 214.788 41.3093 214.498 41.5728C215.719 42.9168 217.283 42.3019 218.618 42.3019C260.825 42.337 298.728 55.2495 331.475 81.7509C366.172 109.833 388.026 146.059 394.966 190.4C399.288 218 397.118 245.362 387.965 271.969C387.561 273.146 387.245 274.358 386.885 275.562C386.682 276.335 386.305 277.187 387.701 277.116Z" fill="white" stroke="white"/>
<path d="M270.664 94.5937C257.532 99.6533 245.34 101.217 235.95 89.6922C228.466 80.5041 229.423 70.3937 235.95 60.4766C223.907 66.3004 219.357 77.1223 223.503 89.4638C227.842 102.376 239.832 109.307 253.026 106.522C260.202 105.012 265.771 101.147 270.664 94.5937Z" fill="white" stroke="white"/>
<path d="M276.251 242.419C278.139 244.711 279.694 244.615 281.811 242.586C300.556 224.675 309.428 202.882 306.38 177.074C303.077 149.132 288.065 129.157 262.653 117.044C261.933 116.702 261.204 116.377 260.448 116.131C259.262 115.744 258.094 114.725 257.224 116.86C256.337 119.029 258.138 118.845 259.016 119.258C268.134 123.606 276.558 128.938 283.506 136.378C294.504 148.149 301.092 161.948 302.778 178.049C305.326 202.355 296.278 224.842 276.251 242.419Z" fill="white" stroke="white"/>
<path d="M216.46 222.691C225.454 228.093 232.165 235.708 237.778 244.387C244.788 255.218 247.581 266.848 243.848 279.488C240.431 291.074 230.751 297.495 218.647 296.441C206.885 295.413 197.89 288.94 189.484 281.385C188.553 280.551 187.683 279.646 186.77 278.794C186.62 278.654 186.366 278.627 186.146 278.548C185.452 279.347 186.225 279.822 186.612 280.261C193.217 287.886 200.244 294.974 209.977 298.62C218.62 301.852 227.273 301.712 235.521 297.671C243.453 293.788 247.423 286.55 249.312 278.302C255.215 252.495 236.803 229.349 217.9 222.453C217.479 222.286 217.048 222.093 216.46 222.691Z" fill="white" stroke="white"/>
<path d="M188.735 294.262C189.543 291.548 185.74 291.486 185.775 289.94C185.828 287.674 186.249 285.838 183.403 285.285C183.289 285.267 183.175 285.25 183.069 285.232C183.825 282.158 180.917 280.453 180.39 278.012C180.03 276.334 179.881 274.928 178.3 274.173C176.929 273.514 175.717 274.234 175.129 275.376C174.241 277.116 175.085 278.53 176.762 279.233C177.931 279.724 177.869 280.339 177.614 281.349C177.21 282.957 177.676 284.362 179.292 285.03C180.452 285.504 180.46 286.181 180.153 287.164C180.021 287.577 179.933 288.227 180.153 288.491C181.98 290.652 182.973 293.208 184.185 295.72C184.809 297.011 186.504 297.758 186.205 299.805C186.056 300.797 186.987 301.684 187.997 302.097C188.735 302.405 189.499 302.475 189.315 303.643C188.99 305.734 189.807 307.218 191.985 307.693C192.96 307.904 192.837 308.51 192.758 309.221C192.705 309.66 192.714 310.442 192.907 310.521C196.21 311.795 195.876 316.556 199.513 317.399C200.374 317.601 200.655 317.917 200.611 318.725C200.593 319.059 200.646 319.648 200.795 319.692C204.221 320.755 205.065 325.454 209.079 325.603C209.922 325.639 210.519 325.498 210.827 326.596C211.767 329.916 214.788 327.905 216.299 328.687C218.653 329.908 220.173 331.401 222.255 328.792C222.817 328.089 223.309 328.239 224.003 328.405C226.427 328.976 228.008 328.089 228.509 325.568C228.65 324.848 228.817 324.286 229.756 324.303C230.178 324.312 230.626 324.066 231.013 323.855C233.296 322.59 232.787 319.876 233.832 318.242C235.018 316.398 237.355 315.291 236.265 312.612C235.853 311.593 236.415 311.347 236.845 310.679C238.848 307.622 237.416 303.793 238.971 300.507C239.366 299.664 237.68 298.408 236.23 298.795C234.482 299.251 233.841 300.78 234.324 302.282C234.869 303.968 234.992 305.198 233.288 306.164C233.033 306.305 232.752 306.797 232.813 307.025C233.586 309.643 231.153 311.76 231.232 313.64C231.408 317.627 226.761 318.805 227.148 322.45C224.143 321.422 223.274 325.322 219.918 325.27C216.888 325.226 214.797 322.195 211.784 323.618C211.363 323.82 211.178 323.144 211.055 322.696C210.906 322.16 210.634 321.194 210.432 321.194C206.795 321.246 206.611 316.67 203.501 316.09C203.387 316.073 203.176 316.064 203.176 316.038C202.912 313.042 200.093 311.918 198.626 309.801C196.72 307.052 194.787 304.32 192.749 301.684C192.477 301.333 191.686 301.263 191.853 300.569C192.407 298.206 191.423 296.871 189.165 296.265C187.804 295.905 188.77 295 188.735 294.262Z" fill="white" stroke="white"/>
<path d="M214.208 233.986C215.71 238.308 217.678 242.428 218.293 246.96C218.503 248.533 218.705 250.131 218.688 251.712C218.635 255.938 216.14 258.476 211.889 258.669C205.565 258.959 199.837 256.579 194.066 254.506C179.81 249.376 166.853 242.27 157.454 229.919C155.733 227.662 154.283 225.202 152.65 222.875C151.648 221.443 150.937 219.73 148.934 218.605C148.407 223.287 150.076 226.889 152.386 230.279C160.116 241.628 170.622 249.587 183.034 255.129C190.412 258.423 197.914 261.454 205.925 262.938C206.144 262.982 206.355 263.079 206.583 263.123C218.618 265.486 224.933 258.573 221.613 246.811C220.216 241.901 217.643 237.711 214.208 233.986Z" fill="white" stroke="white"/>
<path d="M176.842 175.222C177.992 178.648 179.494 181.977 178.414 185.728C177.641 188.416 176.499 190.919 173.214 190.524C169.999 190.137 168.778 187.651 168.593 184.647C168.505 183.172 168.374 181.608 169.164 180.299C172.177 175.275 169.981 170.786 167.61 166.473C164.491 160.799 161.97 155.036 162.418 148.378C162.462 147.693 162.427 146.99 162.603 146.34C163.27 143.784 163.929 140.982 166.907 140.323C169.937 139.664 172.485 141.105 174.408 143.441C177.43 147.122 177.781 152.331 174.997 156.011C175.173 153.315 175.216 150.961 173.758 149.037C172.3 147.113 170.693 145.339 166.942 145.883C173.196 148.027 173.372 153.121 174.479 157.671C178.449 156.582 180.346 154.263 180.294 150.372C180.223 145.506 178.212 141.526 174.347 138.619C169.314 134.833 162.945 136.484 160.38 142.247C157.578 148.536 158.527 154.782 161.443 160.72C163.49 164.892 165.862 168.941 168.444 172.806C169.604 174.546 169.226 175.389 168.058 176.689C166.459 178.472 165.22 180.528 164.588 182.89C163.27 187.801 164.807 192.342 168.699 194.951C171.843 197.059 175.48 197.27 177.948 195.487C181.954 192.579 183.596 187.59 182.05 182.715C181.119 179.763 179.591 177.137 176.842 175.222Z" fill="white" stroke="white"/>
<path d="M206.77 351.49C203.44 350.014 200.515 347.414 198.943 344.726C197.678 342.566 194.41 341.942 194.621 338.701C194.735 336.988 190.985 337.111 191.933 334.467C188.613 333.149 190.44 328.362 187.005 327.15C186.268 326.886 186.25 326.517 186.443 325.885C186.566 325.463 186.689 324.664 186.531 324.576C183.307 322.907 185.951 318.102 182.297 316.697C181.331 316.328 181.709 315.643 181.981 315.019C182.271 314.36 182.473 313.543 181.999 313.069C180.417 311.479 180.453 309.371 179.767 307.535C178.994 305.471 178.072 303.503 177.422 301.307C176.992 299.866 176.509 298.373 176.025 296.959C175.147 294.412 174.602 291.671 173.513 289.343C172.828 287.885 172.169 287.112 172.591 285.338C173.109 283.186 170.817 282.94 169.42 282.193C170.386 280.77 171.713 279.189 169.719 277.792C168.41 276.87 168.322 276.027 168.7 274.718C168.849 274.217 168.849 273.356 168.541 273.084C167.039 271.731 165.713 270.537 166.425 268.095C166.653 267.313 165.362 266.294 164.149 266.847C162.999 267.383 162.603 268.332 163.034 269.658C164.07 272.864 165.467 275.983 165.423 279.452C165.423 279.672 165.432 280.023 165.564 280.102C168.7 281.868 167.804 285.592 168.682 288.149C169.534 290.643 171.721 293.34 170.852 296.458C170.825 296.564 170.79 296.739 170.852 296.792C173.302 299.032 172.081 302.941 174.559 305.075C175.279 305.69 175.2 305.954 174.963 306.674C174.585 307.798 174.602 309.134 175.604 309.827C177.159 310.89 177.378 312.164 176.913 313.78C176.886 313.886 176.869 314.079 176.921 314.114C179.987 315.95 177.817 320.474 181.085 322.213C181.349 322.354 181.753 322.749 181.709 322.863C180.347 326.236 184.88 327.764 184.212 330.9C187.576 331.981 185.855 337.049 189.632 337.813C189.21 341.063 192.987 341.59 193.752 344.208C194.366 346.334 197.125 346.088 198.671 347.766C200.498 349.768 203.528 351.271 206.77 351.49Z" fill="white" stroke="white"/>
<path d="M313.283 297.487C304.227 274.139 289.891 255.491 265.463 246.259C260.895 244.537 256.565 242.209 251.865 240.822C251.022 240.576 250.24 239.926 248.721 240.418C252.849 243.026 256.661 245.468 260.491 247.866C265.41 250.941 270.312 254.042 275.292 257.028C285.842 263.361 294.248 271.82 300.924 282.124C303.577 286.226 306.66 290.056 309.585 293.974C310.657 295.397 311.904 296.679 313.283 297.487Z" fill="white" stroke="white"/>
<path d="M84.2148 166.322C81.3864 166.287 78.5492 166.252 75.7207 166.217C74.9653 168.509 75.1585 170.872 75.1849 173.218C75.4133 194.176 76.0018 215.135 77.0295 236.076C77.091 237.385 76.8187 238.834 77.8991 239.985C79.7262 238.852 79.5944 237.034 79.6296 235.373C80.1039 214.178 78.8917 192.999 78.883 171.812C78.883 170.126 78.0133 168.791 77.337 167.165C79.612 166.305 82.0979 167.543 84.2148 166.322Z" fill="white" stroke="white"/>
<path d="M93.1375 203.857C91.3632 205.816 89.2726 208.451 87.3313 207.652C85.5833 206.932 86.6461 203.559 86.6022 201.38C86.3914 191.481 86.3299 181.581 86.1982 171.681C86.1806 170.662 86.0752 169.635 85.8995 168.633C85.7326 167.693 85.0211 167.386 84.1164 167.465C83.2907 167.535 82.9217 168.071 82.8602 168.809C82.79 169.714 82.7548 170.627 82.7724 171.532C83.1677 192.921 83.563 214.31 84.0022 235.699C84.0197 236.683 83.4136 238.343 85.1265 238.405C86.9009 238.475 86.7955 236.815 86.7955 235.611C86.7867 228.215 86.7867 220.819 86.6374 213.423C86.5934 211.139 86.8658 209.62 89.5537 209.049C91.8375 208.583 93.8051 207.257 93.1375 203.857Z" fill="white" stroke="white"/>
<path d="M68.4738 196.303C46.9705 212.105 30.4477 230.692 28.5943 258.634C31.9234 241.778 40.0135 227.416 51.8368 215.065C56.2464 210.454 60.981 206.15 66.2338 202.522C68.5001 200.958 69.5454 199.307 68.4738 196.303Z" fill="white" stroke="white"/>
<path d="M205.592 123.695C203.484 125.25 202.763 127.376 201.621 129.159C197.818 135.071 192.363 137.6 185.468 137.653C184.001 137.662 181.374 136.704 181.225 138.619C181.076 140.508 183.904 140.042 185.406 140.613C187.4 141.378 189.728 140.64 191.871 141.887C191.151 142.265 190.58 142.783 189.956 142.853C184.071 143.591 181.98 147.307 181.778 152.77C181.647 156.284 179.222 158.963 177.984 162.125C181.673 159.657 185.178 157.048 185.608 152.138C185.854 149.292 187.172 147.597 190.027 146.85C192.407 146.226 194.234 144.672 195.306 142.326C195.622 141.632 196.193 141.009 196.755 140.473C203.238 134.271 203.826 133.2 205.592 123.695Z" fill="white" stroke="white"/>
<path d="M83.4932 348.197C84.6 343.893 84.4419 340.37 84.6878 336.918C85.5662 324.796 86.594 312.683 85.8122 300.509C85.7683 299.797 86.2514 298.769 85.2324 298.436C84.4067 298.163 83.748 298.901 83.1594 299.384C81.6222 300.64 81.4817 302.511 81.1742 304.303C80.3661 308.933 80.5066 313.57 80.9283 318.226C81.7891 327.906 82.5885 337.586 83.4932 348.197Z" fill="white" stroke="white"/>
<path d="M34.8653 278.646C37.4214 267.613 42.0682 257.59 48.3049 248.235C53.6455 240.216 59.9261 233.03 67.1554 226.706C68.9561 225.133 69.9311 223.579 69.3074 220.979C50.861 236.192 37.5269 254.27 34.8653 278.646Z" fill="white" stroke="white"/>
<path d="M210.799 139.585C220.181 136.001 228.517 137.995 236.255 143.722C237.055 144.32 238.047 144.715 239.014 145.005C239.997 145.295 240.726 144.654 241.306 143.898C242.053 142.932 241.456 142.229 240.849 141.509C233.664 132.944 219.276 131.899 210.799 139.585Z" fill="white" stroke="white"/>
<path d="M325.483 98.3691C324.885 98.8347 324.35 99.2124 323.858 99.6428C313.651 108.682 303.435 117.703 293.272 126.785C292.604 127.383 291.067 127.857 292.428 129.421C293.808 131.002 294.651 129.807 295.459 129.034C305.279 119.749 315.074 110.43 324.841 101.083C325.377 100.574 326.194 100.152 326.159 99.2475C326.15 99.0016 325.808 98.7644 325.483 98.3691Z" fill="white" stroke="white"/>
<path d="M351.396 209.393C352.037 209.366 352.916 209.779 353.179 208.927C353.548 207.724 352.389 207.706 351.712 207.557C339.406 204.781 327.117 201.926 314.67 199.836C313.695 199.678 312.588 199.309 312.325 200.907C312.149 201.935 312.518 202.357 313.493 202.532C326.133 204.816 338.765 207.109 351.396 209.393Z" fill="white" stroke="white"/>
<path d="M212.189 148.052C214.859 149.994 217.143 151.654 219.445 153.305C223.81 156.441 228.519 157.065 233.657 155.466C235.256 154.974 235.423 154.605 234.5 153.244C232.99 150.995 231.646 149.379 228.334 150.336C225.4 151.188 222.203 150.661 219.445 149.01C217.275 147.719 214.991 147.613 212.189 148.052Z" fill="white" stroke="white"/>
<path d="M352.847 145.882C354.243 141.384 356.782 138.547 361.613 137.589C356.844 136.755 354.56 133.584 352.952 128.48C351.617 133.435 349.14 136.404 344.581 137.475C348.903 138.89 351.916 141.261 352.847 145.882Z" fill="white" stroke="white"/>
<path d="M353.885 292.724C355.141 288.042 358.128 285.389 362.783 284.335C358.224 283.202 355.097 280.751 353.955 276.008C352.936 280.742 350.038 283.228 345.47 284.335C349.915 285.451 353.007 287.778 353.885 292.724Z" fill="white" stroke="white"/>
<path d="M128.03 172.269C142.129 166.674 148.646 154.684 153.486 141.314C150.359 144.459 148.567 148.535 146.187 152.198C143.701 156.028 140.96 159.656 137.991 163.099C135.014 166.542 131.904 169.845 128.03 172.269Z" fill="white" stroke="white"/>
<path d="M47.9875 193.729C49.4017 188.581 51.993 185.665 56.7715 184.778C52.2829 183.653 49.2699 181.325 48.1105 176.74C47.4429 178.594 46.7314 180.236 45.5543 181.65C44.2806 183.179 42.3306 183.539 39.7393 184.936C44.8516 185.893 46.9158 188.871 47.9875 193.729Z" fill="white" stroke="white"/>
<path d="M350.871 163.194C345.97 162.957 341.191 164.082 336.377 164.863C328.955 166.058 321.559 167.384 314.154 168.702C313.275 168.86 311.94 168.623 312.239 170.345C312.546 172.119 313.706 171.337 314.584 171.188C326.768 169.044 338.837 166.409 350.871 163.194Z" fill="white" stroke="white"/>
<path d="M335.096 121.551C323.747 127.225 312.995 133.559 302.56 140.436C301.971 140.823 300.952 141.148 301.576 142.237C302.296 143.502 303.113 142.694 303.842 142.272C312.494 137.204 320.655 131.389 328.982 125.82C331.037 124.432 333.058 122.974 335.096 121.551Z" fill="white" stroke="white"/>
<path d="M290.664 74.1523C286.712 80.8194 282.706 87.4689 278.806 94.1711C275.837 99.2659 273 104.44 270.119 109.587C269.706 110.325 268.968 111.133 270.329 111.792C271.55 112.38 271.682 111.265 271.99 110.711C278.367 98.9496 284.7 87.1615 291.033 75.3733C291.174 75.1098 291.121 74.7409 291.156 74.4159C290.981 74.328 290.822 74.2402 290.664 74.1523Z" fill="white" stroke="white"/>
<path d="M171.21 216.138C169.392 209.48 169.621 208.698 175.532 204.394C177.579 202.901 178.246 200.951 177.526 198.772C176.797 196.576 174.575 197.692 173.046 197.525C170.85 197.279 170.271 199.159 170.516 200.696C170.868 202.936 169.954 204.57 169.023 206.388C167.091 210.13 167.908 213.433 171.21 216.138Z" fill="white" stroke="white"/>
<path d="M193.98 106.488C181.542 108.236 169.552 106.373 157.852 102.008C169.148 109.87 181.279 110.73 193.98 106.488Z" fill="white" stroke="white"/>
<path d="M328.77 245.574C320.346 239.979 312.545 234.796 304.736 229.622C303.858 229.034 302.971 228.472 302.198 229.807C301.609 230.817 302.268 231.159 302.997 231.607C310.244 236.07 317.464 240.567 324.72 245.012C325.625 245.565 326.609 246.215 328.77 245.574Z" fill="white" stroke="white"/>
<path d="M170.957 225.687C170.878 223.184 169.938 221.049 168.392 219.293C164.272 214.593 163.341 209.534 166.205 203.868C166.811 202.673 167.259 201.364 166.793 199.906C161.321 208.787 158.984 212.098 167.075 220.672C168.515 222.2 169.578 224.027 170.957 225.687Z" fill="white" stroke="white"/>
<path d="M272.014 62.4531C271.101 62.5146 271.022 63.3315 270.802 63.9025C267.772 71.7378 264.776 79.5907 261.772 87.4349C261.491 88.1727 261.052 89.016 262.141 89.4025C263.336 89.8329 263.424 88.5768 263.643 88.0058C266.63 80.1529 269.546 72.2737 272.462 64.3944C272.726 63.6829 273.183 62.866 272.014 62.4531Z" fill="white" stroke="white"/>
<path d="M281.37 118.362C289.135 110.571 296.048 102.085 301.969 92.8008C294.537 100.856 287.484 109.227 281.37 118.362Z" fill="white" stroke="white"/>
<path d="M344.195 184.305C337.3 184.305 330.852 184.296 324.405 184.305C321.445 184.305 318.476 184.331 315.515 184.349C314.822 184.349 314.049 184.357 314.049 185.306C314.04 186.088 314.742 186.088 315.287 186.097C324.721 186.264 334.164 186.624 343.589 185.736C343.633 185.728 343.668 185.561 344.195 184.305Z" fill="white" stroke="white"/>
<path d="M335.867 144.24C326.907 147.121 318.097 150.257 309.577 154.175C309.164 154.368 308.312 154.491 308.602 155.273C308.944 156.178 309.629 155.826 310.297 155.58C319.081 152.374 327.628 148.65 335.867 144.24Z" fill="white" stroke="white"/>
<path d="M308.867 215.662C317.396 220.458 326.69 223.26 336.062 225.887C327.445 221.328 318.301 218.139 308.867 215.662Z" fill="white" stroke="white"/>
<path d="M330.65 276.175C327.33 274.954 325.125 273.32 323.86 269.684C323.158 273.452 321.076 274.972 317.896 275.938C320.944 276.93 323.228 278.151 323.983 281.305C325.108 278.353 327.119 276.737 330.65 276.175Z" fill="white" stroke="white"/>
<path d="M112.832 77.8586C123.391 70.4274 134.599 64.1556 145.781 57.8398C133.651 62.6359 122.767 69.5138 112.832 77.8586Z" fill="white" stroke="white"/>
<path d="M387.701 277.114C387.034 276.807 387.095 276.122 386.902 275.568C383.098 285.187 378.777 294.568 374.024 303.756C379.523 295.35 384.583 286.733 387.701 277.114Z" fill="white" stroke="white"/>
<path d="M245.295 85.0977C247.227 79.0192 248.15 72.8089 248.404 66.502C246.384 72.5629 244.926 78.6942 245.295 85.0977Z" fill="white" stroke="white"/>
<path d="M372.373 156.555C371.108 158.294 370.159 159.822 367.955 160.762C370.124 161.728 371.363 162.826 372.18 164.706C373.199 163.134 374.077 161.737 375.465 160.824C374.463 159.524 372.988 158.601 372.373 156.555Z" fill="white" stroke="white"/>
<path d="M293.724 243.317C298.028 247.753 302.227 252.303 307.172 256.045C307.427 255.781 307.673 255.518 307.928 255.254C303.448 251.029 298.968 246.795 294.488 242.57C294.233 242.816 293.979 243.071 293.724 243.317Z" fill="white" stroke="white"/>
<path d="M132.184 84.4915C128.846 81.5928 128.846 81.5928 126.386 84.4212C127.185 85.326 127.985 86.222 128.828 87.1706C129.856 86.2044 130.708 84.9658 132.184 84.4915Z" fill="white" stroke="white"/>
<path d="M172.433 170.803C172.512 171.91 172.635 173.157 174.119 173.245C175.402 173.324 175.902 172.252 175.902 171.198C175.902 170.092 175.762 168.686 174.374 168.484C172.881 168.273 172.582 169.538 172.433 170.803Z" fill="white" stroke="white"/>
<path d="M134.486 251.773C134.547 252.889 134.934 253.837 135.865 254.514C135.856 254.18 135.725 253.635 135.865 253.548C136.937 252.906 138.825 252.511 137.446 250.816C136.208 249.305 135.584 251.712 134.486 251.773Z" fill="white" stroke="white"/>
<path d="M121.529 286.726C121.055 286.489 120.282 286.849 120.115 286.006C118.42 286.471 116.874 287.2 115.258 288.72C117.708 288.246 119.781 288.017 121.529 286.726Z" fill="white" stroke="white"/>
<path d="M135.768 281.149C136.312 281.008 136.655 280.718 136.532 280.095C136.725 279.041 136.251 278.435 135.249 278.197C134.757 278.083 134.353 278.285 134.187 278.724C133.58 280.253 135.337 280.27 135.768 281.149Z" fill="white" stroke="white"/>
<path d="M167.927 85.6504C167.417 86.4322 166.53 85.8788 165.897 86.2389C167.821 87.2579 169.947 87.1964 172.6 87.6531C171.018 85.993 169.341 86.1247 167.927 85.6504Z" fill="white" stroke="white"/>
<path d="M137.991 265.303C137.973 265.847 137.964 266.383 137.947 266.928C138.36 267.103 138.755 267.306 139.177 267.437C139.985 267.701 140.863 267.78 141.109 266.761C141.364 265.672 140.442 265.514 139.642 265.417C139.098 265.355 138.544 265.338 137.991 265.303Z" fill="white" stroke="white"/>
<path d="M130.497 246.108C130.462 247.004 131.033 247.408 131.78 247.663C132.192 246.758 134.424 246.67 133.334 245.247C132.192 243.754 131.226 245.054 130.497 246.108Z" fill="white" stroke="white"/>
<path d="M137.03 273.04C137.188 273.901 137.698 274.41 138.594 274.384C139.209 274.366 139.648 274.006 139.595 273.356C139.516 272.434 138.866 272.03 138.005 272.056C137.443 272.073 136.881 272.232 137.03 273.04Z" fill="white" stroke="white"/>
<path d="M139.51 259.942C140.248 259.872 140.775 259.564 140.714 258.73C140.661 258.01 140.283 257.421 139.563 257.333C138.702 257.228 138.483 257.904 138.456 258.607C138.421 259.327 138.658 259.881 139.51 259.942Z" fill="white" stroke="white"/>
<path d="M230.926 58.1481C230.926 56.8129 230.926 55.4777 230.926 54.1426C229.512 55.4338 229.924 56.8217 230.926 58.1481Z" fill="white" stroke="white"/>
<path d="M44.0357 134.754C45.4763 127.015 49.3237 120.234 53.259 113.584C58.3186 105.037 60.4882 96.2358 57.0888 86.5294C56.6057 85.1416 55.5428 83.8503 55.9117 81.5577C61.3403 88.2687 64.3268 95.1114 62.9565 103.36C61.9991 109.131 59.7504 114.498 57.6685 119.918C55.78 124.819 54.111 129.773 53.9793 135.088C53.8299 141.588 57.6949 145.866 63.6329 145.936C69.3601 146.006 74.2879 141.21 74.5251 135.395C74.5866 133.831 74.3494 132.909 72.4521 132.663C69.7993 132.321 68.5607 130.898 69.281 127.885C71.6878 117.792 72.698 107.453 74.367 97.2284C76.0447 86.9599 77.538 76.665 79.1191 66.3789C80.5158 71.9041 81.4557 77.3941 82.4834 82.8665C85.2416 97.6325 87.2531 112.548 90.9688 127.129C91.9526 130.977 91.2498 132.294 87.3146 132.101C85.5578 132.022 85.3821 132.689 85.3821 133.963C85.3997 140.13 91.6012 145.576 98.075 145.136C103.512 144.768 107.07 139.567 106.235 133.102C105.823 129.94 105.067 126.866 103.995 123.835C101.545 116.869 98.2683 110.176 97.1703 102.762C96.0196 94.9797 99.1906 85.3436 104.654 81.2503C104.075 82.6557 103.627 83.6746 103.24 84.7112C101.097 90.5086 100.306 96.4378 101.975 102.481C103.099 106.566 105.181 110.246 107.351 113.874C111.04 120.032 114.624 126.233 116.328 133.313C119.71 147.403 108.502 159.367 94.2979 156.766C92.137 156.371 90.0465 155.633 87.6396 154.975C87.8768 157.522 88.1052 159.894 88.316 162.265C88.5883 165.305 87.5254 166.359 84.2051 166.323C81.3678 166.64 78.5394 166.912 75.7109 166.218C70.1506 163.706 74.3494 158.901 73.0406 155.317C71.4331 155.835 69.7466 156.468 68.0161 156.925C53.8475 160.702 41.3478 149.186 44.0357 134.754ZM85.672 126.268C83.0631 114.682 81.605 103.474 79.5495 92.3445C77.4238 103.667 76.5981 115.139 74.0156 127.199C77.9245 124.02 81.4996 123.44 85.672 126.268ZM51.5549 149.572C56.7374 155.203 64.766 155.326 75.7812 149.792C76.8792 153.06 76.5366 156.354 76.2116 159.569C75.9744 161.958 76.8177 162.406 78.9698 162.397C84.5652 162.371 84.5476 162.459 84.4949 156.898C84.4774 154.412 84.2753 151.891 85.2591 149.493C96.2655 154.878 104.198 154.676 109.538 148.914C114.457 143.608 114.686 135.149 109.767 126.321C110.478 130.59 111.26 134.174 110.68 137.89C109.837 143.336 106.982 147.174 101.852 149.054C96.7223 150.934 91.7681 150.099 87.9295 146.217C83.5638 141.799 80.3225 136.73 83.5111 130.098C83.9679 129.15 83.2213 128.93 82.7557 128.57C81.1043 127.305 77.7576 127.806 76.5542 129.475C76.2994 129.826 76.0359 130.054 76.3961 130.599C80.4631 136.756 77.0373 141.684 73.3656 146.182C69.6675 150.697 64.1424 151.645 58.4152 149.353C52.7671 147.095 49.9562 142.677 49.5082 136.721C49.2974 133.884 49.6224 131.064 50.3251 127.885C46.1176 134.745 46.7764 144.381 51.5549 149.572Z" fill="white" stroke="white"/>
<path d="M119.419 241.734C113.235 235.937 107.438 229.858 104.047 221.909C96.7474 204.824 105.259 185.262 122.599 179.807C131.435 177.023 140.114 177.356 148.064 182.961C150.093 184.392 150.506 185.648 148.529 187.484C146.526 189.338 144.568 191.27 142.828 193.378C140.562 196.128 138.146 196.664 135.186 194.635C132.059 192.491 128.844 192.684 125.454 194.09C116.397 197.849 112.919 208.707 117.794 218.404C119.964 222.717 122.994 226.415 126.358 229.841C131.233 234.786 136.583 239.336 140.422 245.187C150.435 260.462 148.353 277.995 132.498 287.605C124.856 292.243 116.511 294.324 107.534 291.742C118.005 290.995 127.746 288.369 135.766 281.14C136.117 280.858 136.117 280.323 136.53 280.085C143.593 272.347 144.401 263.413 141.054 253.971C138.568 246.97 133.851 241.374 128.563 236.253C124.303 232.125 120.455 227.636 117.135 222.691C107.912 208.961 115.132 189.838 130.812 190.049C131.55 190.058 132.235 189.891 132.217 188.978C132.182 186.632 133.93 185.113 134.773 182.978C132.727 184.199 129.029 181.002 128.282 185.745C128.168 186.483 127.123 186.738 126.332 185.982C124.092 183.857 123.908 183.874 122.959 186.72C122.449 188.257 121.474 189.118 120.368 187.757C119.428 186.597 118.751 186.667 117.873 187.291C117.047 187.88 115.782 188.336 116.626 189.917C117.144 190.884 116.757 192.605 115.659 192.21C111.083 190.559 111.329 194.819 109.695 196.725C108.878 197.683 108.887 198.482 110.442 198.807C111.197 198.965 111.944 199.562 111.584 200.555C111.223 201.539 110.345 202.101 109.405 201.662C107.069 200.573 107.306 202.496 107.06 203.629C106.814 204.745 105.531 206.405 108.105 206.633C108.834 206.704 109.449 207.161 109.554 207.872C109.677 208.636 109.045 209.26 108.404 209.313C106.972 209.436 106.111 209.743 106.348 211.5C106.559 213.107 106.823 214.232 108.825 214.486C110.363 214.68 111.584 215.936 109.713 217.209C108.562 217.991 107.938 218.492 108.606 219.766C109.177 220.855 109.186 222.471 111.32 221.988C112.594 221.698 114.228 222.392 112.638 224.026C111.364 225.326 111.812 226.195 112.611 227.232C113.437 228.304 113.815 229.762 115.976 228.673C117.478 227.917 118.426 229.261 117.847 231.062C117.118 233.328 119.243 235.84 121.457 235.155C123.381 234.558 123.714 235.12 123.231 236.842C122.59 239.108 123.811 240.267 126.165 239.626C127.175 239.354 128.598 239.767 128.115 240.557C126.174 243.764 129.301 244.449 130.496 246.091C130.987 246.557 131.523 246.978 131.778 247.646C132.683 249.016 133.579 250.387 134.484 251.766C135.617 252.337 135.239 253.672 135.863 254.506C137.54 257.915 138.331 261.49 137.988 265.293C138.322 265.847 138.366 266.391 137.944 266.918C136.46 276.827 130.311 282.861 121.527 286.709C120.763 287.051 120.06 287.271 120.113 285.988C121.457 285.136 122.836 284.337 124.136 283.423C136.196 274.973 137.874 261.358 128.115 250.413C125.392 247.374 122.414 244.537 119.419 241.734ZM138.761 191.165C140.896 190.893 142.925 189.742 143.189 187.607C143.373 186.061 141.379 185.359 139.912 185.341C137.672 185.306 136.987 187.08 136.609 188.433C136.372 190.568 137.33 191.349 138.761 191.165Z" fill="white" stroke="white"/>
<path d="M134.338 210.621C134.399 208.671 135.128 206.835 136.051 205.113C137.166 203.058 138.484 200.95 141.172 201.327C143.824 201.696 144.281 204.209 144.58 206.29C145.133 210.138 145.985 213.836 147.505 217.437C148.858 220.643 148.375 223.876 146.512 226.898C142.577 233.284 143.245 239.415 147.663 245.318C151.352 250.246 156.175 253.83 161.366 256.974C170.739 262.666 181.174 266.118 190.959 270.958C196.66 273.778 202.212 277.054 208.642 278.003C214.202 278.829 219.824 279.347 224.822 275.913C231.111 271.591 233.404 263.887 231.278 255.156C229.899 249.508 227.396 244.334 225.041 239.002C232.385 246.328 236.276 255.165 235.266 265.618C234.361 274.99 228.379 280.849 219.042 282.342C211.778 283.502 204.996 281.815 198.584 278.539C190.476 274.393 182.175 270.66 173.848 266.979C159.478 260.628 147.312 252.213 139.713 237.579C135.181 228.795 134.057 220.011 134.338 210.621ZM140.934 205.377C139.099 204.99 138.326 206.765 137.807 208.328C137.772 208.434 137.737 208.548 137.711 208.653C137.192 210.533 136.665 212.43 138.238 214.082C138.747 214.618 139.406 214.679 140.1 214.293C142.173 213.151 142.639 211.245 142.647 208.987C142.603 207.59 142.516 205.702 140.934 205.377ZM137.64 225.035C138.088 227.513 138.932 229.823 140.609 232.827C140.741 226.933 146.46 222.892 143.104 217.007C142.595 217.2 142.076 217.402 141.567 217.604C136.771 219.466 136.683 219.686 137.64 225.035Z" fill="white" stroke="white"/>
<path d="M415.399 159.484C413.798 159.698 412.209 160.026 410.608 160.114C398.969 160.732 392.816 152.057 397.67 141.44C402.462 130.986 410.986 123.748 420.216 117.393C442.838 101.82 467.943 91.8084 494.348 84.8858C518.028 78.6819 542.05 74.8991 566.651 76.2861C578.958 76.9796 591 79.1737 602.184 84.6588C621.225 94.0025 627.29 111.341 618.426 130.671C611.982 144.718 601.655 155.474 589.739 164.931C563.486 185.775 533.727 199.595 501.623 208.648C500.375 209.001 499.127 209.392 497.475 209.872C502.38 214.209 508.18 216.441 513.451 219.467C528.469 228.08 542.302 238.76 558.253 245.708C572.224 251.798 586.687 256.476 602.033 257.624C611.944 258.368 621.616 256.968 630.985 253.601C633.86 252.567 636.747 251.559 639.837 250.966C636.281 256.136 631.035 258.796 625.399 260.675C612.449 265 599.095 266.135 585.666 264.168C561.872 260.688 540.284 250.953 519.365 239.63C506.705 232.783 494.65 224.915 482.608 217.046C480.061 215.382 478.952 214.915 477.476 218.32C471.953 231.056 465.901 243.564 461.55 256.779C459.369 263.424 456.734 270.107 459.104 277.307C459.873 279.627 458.89 279.753 457.011 279.489C452.345 278.833 449.067 274.697 448.853 268.733C448.588 261.432 450.303 254.446 452.812 247.662C456.607 237.398 460.378 227.134 464.425 216.971C465.699 213.78 465.056 212.759 461.752 212.33C458.335 211.889 455.17 210.452 452.282 208.497C449.823 206.833 447.995 204.739 448.84 201.562C449.697 198.346 451.69 196.152 455.22 195.61C459.924 194.879 464.375 195.862 468.599 197.729C471.121 198.838 472.306 198.22 473.378 195.812C484.487 170.731 496.302 145.992 508.231 121.29C511.118 115.3 513.502 109.865 519.668 106.99C524.522 104.721 529.541 104.695 534.37 106.965C538.166 108.743 538.645 111.29 535.682 114.216C530.613 119.222 526.805 125.135 523.274 131.201C510.261 153.494 497.929 176.166 486.517 199.33C485.937 200.515 484.26 201.801 485.534 203.251C486.643 204.512 488.22 204.5 490.023 204.134C519.882 198.006 545.782 184.123 568.731 164.301C578.945 155.474 588.074 145.727 595.438 134.391C599.953 127.443 603.332 120.066 603.206 111.555C603.105 104.506 600.104 99.0968 594.165 95.1121C585.086 89.0091 574.759 87.4834 564.293 86.8907C537.321 85.3523 511.27 90.7492 485.584 98.2141C462.862 104.821 441.262 113.976 421.692 127.493C415.185 131.982 409.208 137.077 404.908 143.81C400.167 151.237 402.096 155.575 410.747 157.491C412.31 157.832 413.861 158.21 415.412 158.563C415.387 158.866 415.387 159.181 415.399 159.484Z" fill="white" stroke="white"/>
<path d="M891.284 208.007C883.781 214.728 877.665 221.524 870.465 227.135C865.409 231.082 860.239 234.739 853.997 236.618C842.498 240.111 833.066 231.927 835.045 220.099C835.587 216.846 836.571 213.681 838.374 210.932C849.433 194.124 863.644 181.022 882.709 173.822C888.119 171.779 893.768 170.821 899.53 172.46C903.792 173.671 907.323 175.915 909.24 180.064C909.946 181.59 910.009 183.469 908.647 184.641C907.109 185.978 905.936 184.452 904.953 183.443C901.258 179.648 896.58 180.228 892.532 181.665C872.029 188.992 858.121 203.039 851.223 223.794C850.631 225.597 849.836 227.753 851.791 229.229C853.695 230.666 855.586 229.418 857.251 228.472C865.422 223.844 872.508 217.766 879.191 211.247C886.114 204.514 892.746 197.503 899.657 190.744C904.007 186.495 908.181 185.965 912.48 188.689C915.179 190.391 916.314 192.383 914.422 195.599C910.526 202.244 907.361 209.242 905.936 216.896C903.616 229.342 908.168 233.503 920.122 229.329C935.455 223.97 948.392 214.438 961.178 204.753C964.18 202.484 967.029 200.025 970.005 197.717C971.884 196.267 973.788 194.754 976.285 194.716C976.65 195.132 977.016 195.548 977.382 195.965C974.809 198.159 972.174 200.302 969.652 202.559C954.848 215.837 938.948 227.501 920.664 235.596C916.024 237.652 911.219 239.228 906.05 239.392C896.101 239.694 890.489 234.487 890.023 224.412C889.821 219.229 890.615 214.11 891.284 208.007Z" fill="white" stroke="white"/>
<path d="M830.86 175.123C826.421 175.274 822.777 177.443 819.284 179.965C810.445 186.333 803.207 194.315 796.007 202.549C798.933 195.437 801.871 188.401 804.14 181.112C805.805 175.779 804.14 171.806 799.954 170.659C794.91 169.285 789.879 172.235 788.845 177.456C787.143 185.992 783.549 193.961 781.431 202.322C777.925 216.167 768.947 224.88 756.741 230.97C749.037 234.816 743.905 232.156 742.833 223.619C741.95 216.621 742.341 209.61 743.4 202.599C744.182 197.429 746.01 193.381 749.957 189.51C765.959 173.811 781.443 157.596 794.986 139.652C801.896 130.498 808.68 121.255 812.236 110.171C813.963 104.774 815.123 99.0621 810.42 94.5353C805.54 89.8319 799.601 90.8029 793.801 92.6691C792.262 93.1609 790.787 93.9174 789.362 94.7244C783.183 98.2047 777.711 102.542 772.957 107.838C762.907 119.048 755.745 132.049 749.604 145.642C744.976 155.868 740.904 166.347 736.553 176.8C730.677 171.882 724.423 170.71 716.567 173.559C699.998 179.561 687.313 190.733 677.188 204.78C670.353 214.25 661.791 221.665 652.385 228.259C650.304 229.709 647.807 231.513 645.147 230.025C642.322 228.449 642.511 225.309 642.612 222.547C642.953 213.204 646.332 204.68 650.052 196.294C653.217 189.17 651.968 187.379 643.961 187.72C640.784 187.858 638.905 189.523 637.19 191.881C632.487 198.375 627.821 204.881 622.941 211.236C617.734 218.02 611.782 224.098 604.481 228.663C602.073 230.176 599.286 232.559 596.411 230.516C593.095 228.171 594.456 224.464 595.503 221.463C596.789 217.793 598.769 214.364 600.408 210.808C601.127 209.244 602.678 207.428 600.686 206.004C598.428 204.39 599.74 203.381 600.824 202.145C605.666 196.609 609.638 190.355 615.237 185.45C616.952 183.95 618.415 182.071 617.406 179.423C616.41 176.8 614.216 175.703 611.719 175.35C606.372 174.568 601.606 175.715 598.164 180.267C592.161 188.186 586.916 196.307 584.621 206.394C583.423 211.665 580.712 216.646 580.182 222.27C578.959 235.27 589.791 243.303 601.934 238.334C607.545 236.039 611.908 232.13 615.767 227.641C620.029 222.686 624.089 217.566 628.616 212.069C628.616 216.104 628.502 219.382 628.641 222.648C629.17 235.384 637.594 240.743 649.447 235.863C654.629 233.732 659.282 230.718 663.431 226.935C665.045 225.46 666.722 224.048 668.815 222.219C667.756 238.914 679.899 242.168 689.255 238.902C691.247 238.208 693.265 237.389 695.017 236.241C700.074 232.925 705.206 229.684 709.934 225.927C716.277 220.883 722.254 215.385 728.735 209.786C729.378 215.158 728.723 220.214 729.883 225.145C732.455 236.052 740.55 241.335 751.458 238.965C755.001 238.196 758.33 236.821 761.318 234.766C764.269 232.736 767.081 230.504 770.675 227.818C769.931 229.735 769.552 230.781 769.136 231.803C766.413 238.397 766.438 238.196 773.222 239.003C777.711 239.545 780.283 238.322 782.263 233.934C786.764 223.922 793.019 214.868 799.563 206.079C804.67 199.22 810.47 193.054 818.15 188.88C821.529 187.051 823.71 186.484 824.089 191.566C824.379 195.399 826.472 198.312 830.608 199.169C831.755 199.409 833.054 199.8 833.193 198.034C833.634 192.574 836.749 187.858 837.467 182.487C838.098 177.607 835.778 174.959 830.86 175.123ZM776.109 128.531C781.658 120.208 787.735 112.302 795.238 105.632C797.596 103.538 800.383 100.02 803.56 102.139C806.536 104.131 805.023 108.254 803.951 111.243C800.912 119.792 795.705 127.169 790.56 134.52C778.619 151.593 764.546 166.838 749.781 181.503C757.031 163.005 765.114 145.049 776.109 128.531ZM734.347 185.425C733.035 188.741 732.279 192.297 731.383 195.777C730.929 197.555 730.236 199.03 728.861 200.367C718.433 210.581 707.438 220.076 695.144 227.995C692.508 229.684 689.469 232.635 686.329 230.088C683.341 227.654 684.842 223.821 686.153 220.933C694.273 203.091 705.761 188.527 725.268 182.121C727.109 181.516 729.063 181.213 730.967 180.784C734.498 180.696 735.809 181.705 734.347 185.425Z" fill="white" stroke="white"/>
<path d="M916.163 318.998L920.047 308.406L909.707 282.178H916.617L921.762 296.351C922.031 297.124 922.3 298.066 922.569 299.175C922.838 300.251 923.04 301.142 923.174 301.849C923.342 301.142 923.561 300.251 923.83 299.175C924.099 298.066 924.368 297.124 924.637 296.351L929.479 282.178H936.137L922.771 318.998H916.163Z" fill="white"/>
<path d="M859.994 319V313.754H868.215C869.628 313.754 870.687 313.401 871.393 312.695C872.099 312.023 872.452 311.048 872.452 309.77V307.702L872.553 302.507H871.191L872.553 301.145C872.553 303.398 871.881 305.163 870.536 306.441C869.224 307.685 867.442 308.307 865.189 308.307C862.365 308.307 860.112 307.349 858.43 305.432C856.783 303.515 855.959 300.926 855.959 297.665V292.268C855.959 289.04 856.783 286.467 858.43 284.551C860.112 282.634 862.365 281.676 865.189 281.676C867.442 281.676 869.224 282.315 870.536 283.592C871.881 284.837 872.553 286.585 872.553 288.838L871.191 287.476H872.553L872.402 282.18H878.707V309.921C878.707 312.712 877.782 314.915 875.932 316.529C874.083 318.176 871.544 319 868.316 319H859.994ZM867.308 302.86C868.922 302.86 870.166 302.389 871.04 301.448C871.948 300.472 872.402 299.127 872.402 297.412V292.57C872.402 290.856 871.948 289.527 871.04 288.586C870.166 287.611 868.922 287.123 867.308 287.123C865.694 287.123 864.449 287.594 863.575 288.535C862.701 289.477 862.264 290.822 862.264 292.57V297.412C862.264 299.161 862.701 300.506 863.575 301.448C864.449 302.389 865.694 302.86 867.308 302.86Z" fill="white"/>
<path d="M811.995 310.372C809.642 310.372 807.59 309.934 805.842 309.06C804.127 308.152 802.782 306.891 801.807 305.277C800.865 303.63 800.395 301.696 800.395 299.477V292.617C800.395 290.398 800.865 288.481 801.807 286.867C802.782 285.22 804.127 283.959 805.842 283.084C807.59 282.177 809.642 281.723 811.995 281.723C814.383 281.723 816.434 282.177 818.149 283.084C819.864 283.959 821.192 285.22 822.133 286.867C823.109 288.481 823.596 290.381 823.596 292.567V299.477C823.596 301.696 823.109 303.63 822.133 305.277C821.192 306.891 819.864 308.152 818.149 309.06C816.434 309.934 814.383 310.372 811.995 310.372ZM811.995 304.874C813.677 304.874 814.971 304.42 815.879 303.512C816.821 302.57 817.291 301.225 817.291 299.477V292.617C817.291 290.835 816.821 289.49 815.879 288.582C814.971 287.674 813.677 287.22 811.995 287.22C810.348 287.22 809.053 287.674 808.112 288.582C807.17 289.49 806.699 290.835 806.699 292.617V299.477C806.699 301.225 807.17 302.57 808.112 303.512C809.053 304.42 810.348 304.874 811.995 304.874Z" fill="white"/>
<path d="M760.772 309.919C758.956 309.919 757.359 309.55 755.98 308.81C754.635 308.07 753.576 307.028 752.803 305.683C752.029 304.304 751.643 302.724 751.643 300.941V278.799H742.766V273.1H757.947V300.941C757.947 301.95 758.233 302.757 758.805 303.362C759.41 303.934 760.217 304.22 761.226 304.22H769.599V309.919H760.772Z" fill="white"/>
<path d="M701.073 310.372C698.72 310.372 696.668 309.934 694.92 309.06C693.205 308.152 691.86 306.891 690.885 305.277C689.943 303.63 689.473 301.696 689.473 299.477V292.617C689.473 290.398 689.943 288.481 690.885 286.867C691.86 285.22 693.205 283.959 694.92 283.084C696.668 282.177 698.72 281.723 701.073 281.723C703.461 281.723 705.512 282.177 707.227 283.084C708.942 283.959 710.27 285.22 711.211 286.867C712.187 288.481 712.674 290.381 712.674 292.567V299.477C712.674 301.696 712.187 303.63 711.211 305.277C710.27 306.891 708.942 308.152 707.227 309.06C705.512 309.934 703.461 310.372 701.073 310.372ZM701.073 304.874C702.755 304.874 704.049 304.42 704.957 303.512C705.899 302.57 706.369 301.225 706.369 299.477V292.617C706.369 290.835 705.899 289.49 704.957 288.582C704.049 287.674 702.755 287.22 701.073 287.22C699.426 287.22 698.131 287.674 697.19 288.582C696.248 289.49 695.777 290.835 695.777 292.617V299.477C695.777 301.225 696.248 302.57 697.19 303.512C698.131 304.42 699.426 304.874 701.073 304.874Z" fill="white"/>
<path d="M635.219 309.921V282.18H641.17V287.476H642.734L640.868 290.704C640.868 287.712 641.54 285.459 642.885 283.945C644.23 282.432 646.214 281.676 648.837 281.676C651.83 281.676 654.183 282.6 655.898 284.45C657.613 286.299 658.471 288.855 658.471 292.116V294.134H651.863V292.57C651.863 290.788 651.393 289.41 650.451 288.434C649.543 287.459 648.282 286.972 646.668 286.972C645.021 286.972 643.743 287.459 642.835 288.434C641.961 289.41 641.524 290.788 641.524 292.57V309.921H635.219Z" fill="white"/>
<path d="M593.174 309.92C590.518 309.92 588.433 309.18 586.92 307.701C585.441 306.221 584.701 304.187 584.701 301.598V287.879H577.186V282.179H584.701V274.361H591.056V282.179H601.698V287.879H591.056V301.598C591.056 303.346 591.913 304.221 593.628 304.221H601.194V309.92H593.174Z" fill="white"/>
<path d="M533.626 310.372C531.508 310.372 529.659 310.035 528.078 309.363C526.498 308.69 525.254 307.766 524.346 306.589C523.472 305.378 523.001 303.966 522.934 302.352H529.238C529.306 303.226 529.726 303.932 530.499 304.47C531.306 305.008 532.349 305.277 533.626 305.277H535.846C537.393 305.277 538.553 304.975 539.326 304.369C540.099 303.764 540.486 302.94 540.486 301.898C540.486 300.923 540.133 300.166 539.427 299.628C538.754 299.057 537.695 298.687 536.249 298.519L532.819 298.014C529.659 297.577 527.339 296.736 525.859 295.492C524.379 294.248 523.64 292.382 523.64 289.894C523.64 287.304 524.514 285.304 526.263 283.891C528.011 282.446 530.583 281.723 533.98 281.723H535.896C538.99 281.723 541.461 282.412 543.311 283.791C545.16 285.169 546.152 287.019 546.286 289.339H539.982C539.881 288.599 539.46 287.994 538.721 287.523C538.015 287.052 537.073 286.817 535.896 286.817H533.98C532.534 286.817 531.474 287.086 530.802 287.624C530.163 288.128 529.844 288.885 529.844 289.894C529.844 290.835 530.129 291.541 530.701 292.012C531.273 292.449 532.197 292.769 533.475 292.97L537.056 293.475C540.352 293.945 542.773 294.837 544.319 296.148C545.9 297.426 546.69 299.326 546.69 301.847C546.69 304.538 545.765 306.639 543.916 308.152C542.1 309.632 539.41 310.372 535.846 310.372H533.626Z" fill="white"/>
<path d="M465.857 309.919L475.138 273.1H483.259L492.59 309.919H486.134L484.116 300.992H474.331L472.314 309.919H465.857ZM475.491 295.847H482.956L480.737 285.961C480.367 284.314 480.047 282.834 479.778 281.523C479.509 280.178 479.324 279.203 479.224 278.597C479.123 279.203 478.938 280.178 478.669 281.523C478.433 282.834 478.114 284.297 477.71 285.911L475.491 295.847Z" fill="white"/>
</svg>
